<svg id="Layer_2" data-name="Layer 2" xmlns="http://www.w3.org/2000/svg" viewBox="0 0 612 792"><title>isle-of-dogs-icon</title><path d="M414.84,463l-.13-1.46c-.86-10.34-2-20.56-3.19-30.44-3.48-30-7.07-61-2-99.82.93-7.18,1.76-13.18,2.49-18.49,3.56-25.9,4.3-31.29-1.19-44.9-2.56-6.35-5.55-8.23-7.15-9.24l-.13-.08c.15-.2.37-.47.71-.85,6.14-6.91,8.13-23.52,5.31-44.43-2.77-20.51-9.39-40.5-17.72-53.48-8.18-12.74-17.47-18-26.87-15.07-35,10.7-45.17,78.72-46.86,92.25a.19.19,0,0,1-.2.17l-24.9,0h0a1,1,0,0,1-1-.81c-3.08-13.69-20.21-82.48-54.82-93.07-5.34-1.64-10.06-.85-14,2.35-19,15.27-15.19,84-13.56,104.77a11.43,11.43,0,0,1-2.2,7.64c-17.28,23.54-10.28,59.2-6.47,73.45,8.95,33.43,4.91,60.71,1,87.09-2.4,16.17-4.66,31.44-3.85,47.4.11,2.07.12,4.17.13,6.39.08,12.11.16,25.85,16.16,37.53A51.23,51.23,0,0,0,239,519.34l2.44.26c16.84,1.82,50.14,5.41,81.2,5.41,21.6,0,42.12-1.74,55.28-7C418.18,501.86,416.17,478.49,414.84,463Zm-38,52.19c-31.39,12.6-106.69,4.47-135,1.41l-2.44-.27A48.08,48.08,0,0,1,216,507.53c-14.78-10.79-14.85-23.16-14.93-35.13,0-2.26,0-4.39-.13-6.53-.8-15.65,1.44-30.78,3.82-46.8,3.95-26.68,8-54.27-1.07-88.31-11.1-41.5.49-63.41,6-70.9a14.37,14.37,0,0,0,2.78-9.65c-3.3-41.93-1.76-90.79,12.45-102.19a10.79,10.79,0,0,1,7-2.52,14.86,14.86,0,0,1,4.31.69c33,10.12,49.76,77.47,52.78,90.87a4,4,0,0,0,3.95,3.15h0l24.91,0a3.2,3.2,0,0,0,3.17-2.8A237.6,237.6,0,0,1,331.48,192c3.91-11.27,8.49-20.63,13.61-27.83,6.15-8.66,13.12-14.22,20.71-16.55,10.07-3.08,18.32,5.82,23.46,13.83,17.4,27.11,24.64,80.87,12.7,94.3-1.07,1.2-1.87,2.21-1.71,3.37s1,1.59,1.77,2.09c1.41.89,3.77,2.37,6,7.82,5.19,12.87,4.55,17.53,1,43.38-.73,5.3-1.56,11.32-2.49,18.5-5.07,39.17-1.46,70.38,2,100.55,1.15,9.86,2.33,20.06,3.18,30.35l.13,1.47C413.1,477.86,415,499.9,376.84,515.21Z"/><path d="M307.41,349.67a18.21,18.21,0,0,1-2.93-.09c-5.41-.6-23.49-1.6-29.15,10.8-2.77,6.05-1.26,16.23,4,27.23s15,23.41,24.59,25.8a9.89,9.89,0,0,0,2.47.31c13.89,0,27.91-27.75,32.06-36.68a13.93,13.93,0,0,0,1.18-3.91c.5-3.64.59-10.56-4.49-16C329.89,351.38,320.56,348.89,307.41,349.67Zm29.28,23.05a11.08,11.08,0,0,1-.93,3.06c-7.22,15.55-18.28,32.71-27.57,34.73,1.66-21.63.33-39.82-.13-41.17a1.53,1.53,0,0,0-1.9-1,1.45,1.45,0,0,0-1,1.86c.34,1.52,1.64,19.05,0,40.38l-.5-.09c-7.45-1.86-16.54-11.58-22.61-24.19-4.91-10.2-6.4-19.43-4-24.69,3.61-7.91,13.7-9.36,20.6-9.36a51.89,51.89,0,0,1,5.48.3,20.15,20.15,0,0,0,3.45.1c12.2-.73,20.74,1.45,25.38,6.46C337.21,363.7,337.12,369.61,336.69,372.72Z"/><path d="M355.9,322.62c.3,0,.59,0,.89,0,9.26,0,16.79-6.75,16.79-15.05s-7.53-15.05-16.79-15.05S340,299.31,340,307.61a13.84,13.84,0,0,0,2.67,8.1c-4.44-2.08-5.43-2.79-11.74-7.38-1.4-1-3.05-2.23-5.07-3.68-1.5-1.08-2.77-2-3.87-2.82-6.93-5.09-7.35-5.39-15-6.77-.31-.06-.87-.13-1.2-.18a1.39,1.39,0,0,0-.5,0l-2.85-.25h-.12a15.71,15.71,0,0,0-3.4.18c-1.2.21-2.22.32-3.2.42-4.9.52-7.83,1.18-15.87,9.69a104.6,104.6,0,0,0-7.26,8.36A14,14,0,0,0,273,310c0-8.3-7.53-15.05-16.79-15.05s-16.79,6.75-16.79,15.05S247,325,256.25,325a18.21,18.21,0,0,0,2.1-.13c-12.12,9.87-25,25.14-27.88,36.56-1.6,6.43-1.94,25.86,1.61,45.62,3,16.77,9.58,37.83,23.81,43.12,1.91,1.42,15.95,10.72,45.19,4.12l1.26-.4c.9-.29,2.87-.93,3.62-1.13l3.05.88c6.05,1.78,12.21,3.59,19.73,3.59,6.84,0,14.81-1.5,24.85-5.89,25.26-11,31.77-76.43,28.33-90.17C379.12,350,368.45,331.78,355.9,322.62Zm.89-27.06c7.6,0,13.79,5.4,13.79,12.05,0,6-5.1,11-11.73,11.9a10.89,10.89,0,0,0,8.74-11.87,11.07,11.07,0,0,0-22,1.23,10.89,10.89,0,0,0,7.88,10.41c-6-1.32-10.43-6-10.43-11.67C343,301,349.19,295.56,356.79,295.56ZM242.46,310c0-6.64,6.19-12.05,13.79-12.05S270,303.35,270,310c0,5.63-4.45,10.36-10.43,11.68a11.06,11.06,0,1,0-5.42.22C247.56,321,242.46,316,242.46,310ZM352.39,448.64c-20.07,8.77-31,5.56-42.54,2.16l-3.42-1a1.27,1.27,0,0,0-.39-.06c-.46,0-1.32.26-4.62,1.33l-1,.32c-29.37,6.63-42.74-3.59-42.87-3.69a1.64,1.64,0,0,0-.43-.24c-10.16-3.65-18-18.18-22.09-40.91-3.43-19.1-3.15-38.35-1.65-44.36,3-12,18.91-29.75,31.89-38.76,6.82-4.75,7.52-5.49,9.67-8.25a103.91,103.91,0,0,1,7.13-8.19c7.64-8.1,9.9-8.34,14-8.76,1-.11,2.11-.22,3.41-.46a13.44,13.44,0,0,1,2.74-.14l4.19.36h.08c6.95,1.26,6.95,1.26,13.74,6.24l3.89,2.83,5.06,3.67c7.62,5.55,7.76,5.63,15,9l4.62,2.13c13.92,6.48,27.18,28.07,30.18,40.09C382.22,374.79,375.84,438.38,352.39,448.64Z"/><path d="M294.41,369.64c-1.2-.84-3.73-1.85-5.42-1-1.88,1-3.38,4.64-2.29,6.88,0,.08.09.19.14.32a12.08,12.08,0,0,0,1.44,2.54,6.35,6.35,0,0,0,1.87,1.51l.16.1c1,.62.95.89.82,1.62l0,.1c-.17.93-1.06,1.36-2.63,1.27-5-.28-5.23-.1-5.37.34s.27.66.49.8a13.55,13.55,0,0,0,5.65,1.34,8.38,8.38,0,0,0,7.31-3.94c1.74-2.61,1.44-5.62.91-8.22C297.11,371.6,294.86,370,294.41,369.64Z"/><path d="M322.84,383.06c-1.58.08-2.45-.34-2.62-1.28l0-.09c-.13-.73-.19-1,.82-1.63l.16-.09a7,7,0,0,0,1.87-1.51,12,12,0,0,0,1.43-2.55l.14-.31c1.09-2.25-.41-5.9-2.28-6.89-1.69-.88-4.22.12-5.42,1-.45.32-2.71,2-3.06,3.71-.53,2.6-.84,5.61.9,8.22a8.4,8.4,0,0,0,7.31,3.93,13.89,13.89,0,0,0,5.69-1.35c.19-.13.59-.4.46-.79S327.8,382.78,322.84,383.06Z"/><path d="M277.5,233a5.61,5.61,0,0,0,.87-4.6c-1.56-9.31-23.58-51.72-38.32-57.63-3.67-1.47-6.18-.46-7.65.64-11.56,8.67-10.58,59.15-10,74.42a2.42,2.42,0,0,0,2.41,2.33,2.46,2.46,0,0,0,1.25-.35h0c17.05-10.11,31-11.14,40.23-11.82C272,235.61,275.69,235.34,277.5,233Zm-52.14,11.74c-1.66-46.19,3.71-67.09,8.84-70.93a3.77,3.77,0,0,1,2.34-.78,6.62,6.62,0,0,1,2.39.52c13,5.21,34.8,45.27,36.48,55.34.26,1.58-.14,2.09-.27,2.25-1,1.26-4.56,1.53-9.07,1.86C256.7,233.73,242.63,234.77,225.36,244.78Z"/><path d="M379.69,169.4c-6.18-7.23-11.55-7-15-5.61-18.23,7.65-25.6,58.74-26.89,68.9a2.56,2.56,0,0,0,.74,2.15,2.53,2.53,0,0,0,2.15.71c17.49-2.47,42.52,9.15,47.37,11.51a2.67,2.67,0,0,0,1.13.26,2.53,2.53,0,0,0,2.16-1.21c5.07-8.2,6.3-22.47,3.39-39.15C392.08,191.52,386.3,177.13,379.69,169.4Zm9.36,74.78c-5.18-2.49-26-12-43.22-12a39.86,39.86,0,0,0-4.94.29c3.51-27.19,12.13-60.56,25-65.95,3.63-1.52,7.5.09,11.52,4.79,6.28,7.34,11.8,21.19,14.41,36.13C394.53,223,393.49,236.63,389.05,244.18Z"/></svg>