<svg id="Layer_2" data-name="Layer 2" xmlns="http://www.w3.org/2000/svg" viewBox="0 0 612 792"><title>isle-of-dogs-icon</title><path d="M439,259.86c-.51-9.5-2.66-26.18-11.3-31.22-10.66-6.22-60.45-4.64-66.09-4.43-9.65.34-17.18,3.64-22.39,9.79-9.45,11.17-8.45,28.49-7.73,34.66l-4.78-1a32.16,32.16,0,0,0-6.61-.72c-3.32,0-7.94,0-9.89.05a14.73,14.73,0,0,0-1.48.11l-8.84,1.14c.72-6.06,1.77-23.25-7.55-34.51-5.22-6.29-12.81-9.66-22.57-10-14-.49-40-1.42-54.48,1.38-2,.37-10.13,2.47-11.39,2.95-5.88,2.24-9.88,10-11.57,22.38-3.84,28.11,5.27,70.76,22.76,84.4.63,6.47,5.57,59,4.56,79.78a33.74,33.74,0,0,0-.39,4.59c-2.37,17.51,3.41,44.56,10.38,62.28,6.85,17.46,26.87,31.69,34.06,34.69l.17.06a245.54,245.54,0,0,0,35.95,6.58,210.07,210.07,0,0,0,22.68,1.28c21.38,0,36-3.75,45.16-7.42,7.14-2.86,27.09-16.9,34.08-34.7s12.79-44.91,10.37-62.41c-2.24-16.25,3.5-77.23,4.18-84.23C432.37,322.79,440.46,287.31,439,259.86ZM361.69,227.2c19.08-.68,52.58-.68,62.94,3.32l-45.19,44.22a.5.5,0,0,1-.56.12.47.47,0,0,1-.32-.43c-1.11-18.24-18.42-40.32-23.48-46.41A37.8,37.8,0,0,1,361.69,227.2ZM215.84,228c14.14-2.74,40.93-1.78,53.81-1.32a36.19,36.19,0,0,1,6.81.87,159.32,159.32,0,0,0-10.9,15c-8.09,12.67-12.3,23.57-12.5,32.4l-45.77-44.78C210.11,229.4,214.52,228.29,215.84,228ZM398.93,480.87c-6.56,16.7-25.84,30.38-32.41,33-40.22,16.09-99.17.2-101.77-.51-6.91-2.93-25.84-16.44-32.34-33-6.84-17.41-12.53-43.92-10.19-60.91.17-1.23.29-2.69.38-4.35,1.27-8.81,6.93-29.67,32.15-41.87,33.37-16.14,51.36-4.45,57,.57l-.07.08,1.62,1.45a4.51,4.51,0,0,1,.38.44l.06-.05.18.16c.18-.21,19.16-20.8,59.48-2.71,32.84,14.75,35.45,45.79,35.47,46.1H409c0,.23,0,.46.08.68C411.46,437,405.77,463.46,398.93,480.87ZM282.1,361.2A15,15,0,0,0,276,336.74c1.06,0,2.15.09,3.26.18a8.4,8.4,0,0,1,6.28,3.59c2.16,3.11,4.51,8,3.44,13.51A9.16,9.16,0,0,1,282.1,361.2ZM256.19,351A15,15,0,0,0,266.1,365L261,366.25c-2.19-.9-12.45-5.95-9.21-20.47,0-.13.74-3.11,5.3-5.67a24.9,24.9,0,0,1,7.41-2.59A15,15,0,0,0,256.19,351Zm111.91,15.6A15,15,0,0,0,369.66,339a24.9,24.9,0,0,1,7.41,2.59c4.55,2.56,5.27,5.54,5.29,5.67,3.25,14.53-7,19.58-9.2,20.47ZM348,352.46a14.94,14.94,0,0,0,4.08,10.25,9.19,9.19,0,0,1-6.86-7.18c-1.06-5.53,1.29-10.4,3.45-13.51a8.4,8.4,0,0,1,6.27-3.59c1.12-.09,2.2-.14,3.27-.18A15,15,0,0,0,348,352.46ZM414,333.31l-.54.4-.07.66c-.22,2.26-4.49,46-4.75,71.64-4.15-11-13.42-26.33-34-35.55l-.08,0c3.14-1.42,14.35-7.69,10.75-23.79-.12-.54-3.3-13.31-30.57-11.19a11.37,11.37,0,0,0-8.51,4.87c-2.49,3.58-5.19,9.23-3.92,15.79a11.76,11.76,0,0,0,3.77,6.69c-17.3-1.14-27.8,5.46-32.12,9a37.31,37.31,0,0,0-13.25-7.47,46,46,0,0,0-13.61-2.22,11.76,11.76,0,0,0,4.83-7.52c1.27-6.55-1.43-12.21-3.92-15.79a11.41,11.41,0,0,0-8.51-4.87c-27.28-2.12-30.45,10.65-30.57,11.19-3.22,14.41,5.42,20.95,9.52,23.18-1.75.73-3.42,1.49-5,2.25-17.81,8.61-26.16,21.37-30,30.55-.25.59-.48,1.17-.7,1.74-.51-25.86-4.5-66.78-4.71-69l-.07-.66-.54-.4c-8-5.89-14.7-18.62-18.91-35.83-3.82-15.6-5-32.86-3.2-46.17,1.42-10.4,4.54-17.29,8.82-19.58l47.29,46.28a2.75,2.75,0,0,0,3,.57,2.74,2.74,0,0,0,1.69-2.54c.05-18.29,19.89-42.71,23.55-47.06A23.31,23.31,0,0,1,290,235.63c9.71,11.73,7,31.48,6.69,33.69a1.78,1.78,0,0,0,.47,1.52,1.86,1.86,0,0,0,1.55.56l10.37-1.33a7.78,7.78,0,0,1,1.17-.09c1.93-.05,6.51-.08,9.8-.05a29.71,29.71,0,0,1,6,.65l5.63,1.2.15,0a2.46,2.46,0,0,0,2.7-2.76c-.67-5.05-2.13-22.36,6.95-33.1a23.44,23.44,0,0,1,10.42-7c3.11,3.68,22.54,27.3,23.66,45.7a3.46,3.46,0,0,0,2.23,3,3.64,3.64,0,0,0,1.29.24,3.48,3.48,0,0,0,2.45-1l45.8-44.82C432,236,435.24,246.23,436,260,437.44,287,429.59,321.76,414,333.31Z"/><path d="M313.4,391.35v-.07l-.69,0-.4,0v0c-4.89.26-24.44,1.88-31,11.41-4.33,6.32-5.79,13.31-4.12,19.67A19.46,19.46,0,0,0,287.69,435c1.26.61,3.16,1.82,5.36,3.22,6.42,4.1,15.23,9.74,21.85,9.65.31,0,.62,0,.94,0,8.74,0,21.24-9.49,25-12.49.43-.35.87-.67,1.32-1,10.81-7.58,12.26-18.86,4-30.95C339.55,393.92,318.5,391.74,313.4,391.35Zm27,40.63c-.5.36-1,.71-1.48,1.1-2.61,2.1-16,12.51-23.84,11.8h-.29c-5.75,0-14.4-5.52-20.14-9.18-2.28-1.45-4.24-2.7-5.65-3.39a16.42,16.42,0,0,1-8.89-10.66c-1.45-5.51-.14-11.62,3.69-17.21,5.79-8.45,24.78-9.9,28.88-10.12,3.68.27,25,2.19,30.94,10.88C348.81,412.75,352.46,423.53,340.41,432Z"/><path d="M299.32,410.6a7.58,7.58,0,0,0-5.77,3.39,7.49,7.49,0,0,0-.94,5.77,5.46,5.46,0,0,1,.13,1.13l-.09.09-.14.13c-1.15,1.22-3.18,1.11-4,1h-.17c-1.15,0-2.89-.05-3.18,1.46a1.67,1.67,0,0,0,.43,1.46c1.13,1.27,6.25,2.86,11.62,2.86.61,0,1.22,0,1.84-.07a11.29,11.29,0,0,0,7-3.19,7,7,0,0,0,1.73-3.19c1.1-3.53.58-6.61-1.45-8.67A9,9,0,0,0,299.32,410.6Z"/><path d="M339.71,423l-.17,0c-.82.1-2.85.21-4-1l-.13-.13-.07-.05h0a4.31,4.31,0,0,1,.11-1.18,7.48,7.48,0,0,0-.94-5.76,7.62,7.62,0,0,0-5.77-3.4,9,9,0,0,0-7,2.16c-2,2.07-2.55,5.14-1.45,8.67a6.89,6.89,0,0,0,1.73,3.19,11.29,11.29,0,0,0,7,3.2c.61,0,1.23.06,1.84.06,5.37,0,10.49-1.58,11.62-2.86a1.67,1.67,0,0,0,.43-1.46C342.59,423,340.85,423,339.71,423Z"/></svg>