<svg id="Layer_2" data-name="Layer 2" xmlns="http://www.w3.org/2000/svg" viewBox="0 0 612 792"><title>isle-of-dogs-icon</title><path d="M262,306.65c1.88-.81,7.26-2.9,9.51-2.9,2.81,0,21.4,1.93,28.82,3h.18a1.25,1.25,0,0,0,1.16-.79c.41-1,2.28-6.14-.6-7.58-2.06-1-21.54-2.65-27.46-3.13h-.24c-.4,0-9.8,1.18-13,9.8a1.22,1.22,0,0,0,.31,1.34A1.25,1.25,0,0,0,262,306.65Z"/><path d="M362.84,298.3l-.2,0c-.74-.08-18.25-2-23.39-1-3.33.67-4.92,3.41-4.25,7.33a2.22,2.22,0,0,0,1,1.52,2.18,2.18,0,0,0,1.81.23c2.24-.69,8.54-2.14,18.46-.61,12.81,2,17.9,3,17.94,3l.25,0a1.25,1.25,0,0,0,1-2.05A28.13,28.13,0,0,0,362.84,298.3Z"/><path d="M417.1,327.1c-1.15-2.16-2.66-3.49-4.35-3.83a10.08,10.08,0,0,0-5.92.31,96.83,96.83,0,0,0,.92-11,104.1,104.1,0,0,0-1.83-22.76,158.17,158.17,0,0,1-2.17-18.35c-.7-12.59-2.58-24-18.5-35.93-21.61-16.21-56.15-17.14-74.81-16.25-23.1,1.1-44.29,10.69-64.78,29.33-14.15,12.86-15.09,48.19-13.78,73a6.1,6.1,0,0,0-3.75-.83c-2.58.31-4.85,2.39-6.75,6.18-4,7.93,1.19,26.64,4.61,37.1a17,17,0,0,0,4,6.56c2.37,2.41,3.9,4.61,4.3,6.2.1.41.19.85.28,1.31.49,2.36,1.1,5.3,3.67,6.49a5.57,5.57,0,0,0,2.38.49c1.91,0,4.26-.78,7.19-2.34,1.16,2.24,2.37,4.4,3.63,6.41,1,1.56,1.94,3.14,2.9,4.72,9,14.79,18.41,30.09,37.84,33.83,1.33.44,15.5,5,25.32,5H320l3,0c10.26,0,25.37-.7,38.17-9.24,11.08-7.38,22.16-28.21,27.79-40.55a4.72,4.72,0,0,0,2.26,1.18,7.06,7.06,0,0,0,1.54.16,12.21,12.21,0,0,0,7.6-2.95c6.65-6.64,10.09-15.14,14.06-25,.71-1.77,1.44-3.57,2.21-5.42C420.62,341.45,419.67,331.92,417.1,327.1ZM239.29,382.33c-1.42-.66-1.85-2.73-2.27-4.73-.1-.49-.2-1-.31-1.4-.52-2.08-2.18-4.55-4.94-7.35a14.39,14.39,0,0,1-3.4-5.59c-5.54-16.91-7.32-30.07-4.75-35.2,1.47-2.94,3.13-4.61,4.79-4.81,1.84-.24,3.39,1.34,3.66,1.63.78,12.52,2,21.72,2.19,22.79l0,.11s0,0,0,.06a221.69,221.69,0,0,0,12.38,32.67C243.26,382.35,240.7,383,239.29,382.33Zm120.52,39.13c-13.5,9-29.32,8.88-39.79,8.8H317.5c-9.68,0-24.46-4.89-24.6-4.94l-.17,0c-18.4-3.5-27.48-18.34-36.25-32.7-1-1.58-1.94-3.17-2.92-4.73-8.37-13.39-14.69-33.42-16.4-39.11a3.87,3.87,0,0,0,.86-.39c7.22-4.48,11.28-42.4,11.73-46.74,0-.26,2.37-26.68,16.05-36.72,4.91-3.6,10.77-4.66,17.42-3.16,30.9,7,64.17,1.07,64.52,1,.2,0,19.58-3.75,31.95,6.72,5.06,4.28,8.84,18.55,10.94,41.27,1.58,17.16,1.62,33.2,1.62,33.76-.34,8.61-1.2,25.65-2,28.72C389.39,376.78,374.24,411.84,359.81,421.46ZM414.35,350c-.78,1.85-1.51,3.67-2.23,5.44-3.87,9.59-7.21,17.87-13.5,24.16-1.18,1.17-4.64,2.61-6.82,2.11a2,2,0,0,1-1.62-1.39l0,0a59.9,59.9,0,0,0,2.55-6.52c.92-3.66,1.8-23.48,2-28.24,2.6-.69,8.7-3.9,11.57-18.69a1.26,1.26,0,0,0,.59-.38c.05-.06,1.36-1.57,5.38-.76a4.45,4.45,0,0,1,2.64,2.54C417.27,332.73,417.84,341.63,414.35,350Z"/><path d="M301.56,331.46a1.5,1.5,0,0,0-.12-1.79c-.07-.12-.22-.44-.34-.71-1.37-3.1-5.55-12.51-22.73-10.7-12.53,1.32-17.79,12.25-18,12.71a1.24,1.24,0,0,0,.76,1.72,74.89,74.89,0,0,0,21.93,3.59C294.25,336.28,300.63,333,301.56,331.46Zm-27.07,1.69a79.15,79.15,0,0,1-11.13-2.4,21.83,21.83,0,0,1,11.47-9.2,7.71,7.71,0,0,0-3,5.95A7.63,7.63,0,0,0,274.49,333.15Zm13.61.35a7.74,7.74,0,0,0,3-6,7.92,7.92,0,0,0-3.83-6.57c8.15,1.5,10.48,6.74,11.5,9,.08.18.15.35.22.49C297.82,331.28,294.13,332.88,288.1,333.5Z"/><path d="M352.5,318.25c-7.48,0-12.92,1.8-16.19,5.35a11.34,11.34,0,0,0-3.06,8,1.26,1.26,0,0,0,.87,1.09,64.37,64.37,0,0,0,19.55,3.19c10.68,0,17-3.07,17.39-3.26a1.27,1.27,0,0,0,.69-1,11.34,11.34,0,0,0-3.06-8C365.42,320.05,360,318.25,352.5,318.25Zm-9.85,14a66.17,66.17,0,0,1-6.88-1.7,9,9,0,0,1,2.42-5.33,12.53,12.53,0,0,1,5-3.12,7.54,7.54,0,0,0-2.34,5.37A7.42,7.42,0,0,0,342.65,332.28Zm14.83.9a7.63,7.63,0,0,0,2.67-5.68,7.89,7.89,0,0,0-3.8-6.55c4.73.5,8.25,1.92,10.46,4.3a9,9,0,0,1,2.43,5.43A40.45,40.45,0,0,1,357.48,333.18Z"/><path d="M300.35,368c2.18,5.08,5.89,5.55,7.9,5.37a12,12,0,0,1,5.08.69,15.19,15.19,0,0,0,5.17.7,7.12,7.12,0,0,0,2.58-.86,10.47,10.47,0,0,1,3.42-1.14,18.41,18.41,0,0,1,2.22.22c2.94.4,7,.94,8.9-2.91,3.83-7.66-2.62-12.5-5.37-14.56-3.57-2.68-5.5-9.21-5.5-14a1.25,1.25,0,0,0-2.5,0c0,5.53,2.23,12.8,6.5,16,3.91,2.93,7.18,6.35,4.63,11.44-1.05,2.1-3.18,2-6.32,1.55a20.34,20.34,0,0,0-2.56-.24,12,12,0,0,0-4.46,1.37,12.56,12.56,0,0,1-1.54.63,13.16,13.16,0,0,1-4.33-.55,14.49,14.49,0,0,0-6.13-.83q-3.6.3-5.39-3.86c-1.93-4.49,2.08-8.13,6-11.18a19.36,19.36,0,0,0,1.74-1.45c2.2-2.19,2.37-10.41,2.37-12.88a1.25,1.25,0,0,0-2.5,0c0,4.56-.63,10.11-1.63,11.12-.31.3-.87.74-1.52,1.24C303.75,356.48,297.51,361.35,300.35,368Z"/><path d="M341.53,395.41a5.83,5.83,0,0,0-2.06-2.86c-5.54-4.26-20.12-2.55-22-2.31-18.26-2.47-22.77,1.9-23.88,4.06a1.49,1.49,0,0,0-.57.81,1.51,1.51,0,0,0,.77,1.73c5.12,8.92,8.95,9.93,24.6,10.91.74,0,1.45.07,2.14.07,12.83,0,18.91-7.49,20.56-10a1.5,1.5,0,0,0,.85-1.67A1.55,1.55,0,0,0,341.53,395.41Zm-22.95,9.84c-14-.87-17.57-1.8-21.33-7.57a114.25,114.25,0,0,0,23,2.33,103.25,103.25,0,0,0,17.08-1.4C334.52,401.61,328.68,405.9,318.58,405.25Zm-21.89-10.77c1.79-1.51,6.82-3.63,20.64-1.74h.34c4.24-.58,16.15-1.38,20.28,1.79a4.47,4.47,0,0,1,.78.79C319.79,398.91,302.22,395.7,296.69,394.48Z"/></svg>