<svg id="Layer_2" data-name="Layer 2" xmlns="http://www.w3.org/2000/svg" viewBox="0 0 612 792"><title>isle-of-dogs-icon</title><path d="M414.46,304.67c-.79-3.55-2.29-5.79-4.47-6.67a5.67,5.67,0,0,0-3.05-.3c.94-13.24,3.8-68.53-12.55-87.61-17.87-20.85-25.27-29.48-85.06-32.52-24.35-1.24-41.87,2.85-52.09,12.17-6.7,6.1-8.11,12.63-8.41,15.22-35.66,12.11-33.79,38.37-32.42,57.58.52,7.32,1,13.65-.58,18-2.41,6.83-1.77,16.56-.08,26a8.57,8.57,0,0,0-7.24.9c-4,2.85-5,9.66-3,20.83,4.76,26.63,13.57,39.89,20.19,41.21a22.62,22.62,0,0,0,4.38.41,28.37,28.37,0,0,0,5.25-.5c.1,1.35.16,2.57.16,3.62,0,25.73,6.84,43.12,19.77,50.31,3.24,1.8,6,3.48,8.71,5.11,11.93,7.21,20.55,12.42,47.93,14.08,1.19.07,2.36.1,3.53.1,31.55,0,54.68-25.48,55.72-26.65.57-.7,14.13-17.17,16.18-21.28,1.23-2.45,2.62-16.69,3.64-31.75a6.65,6.65,0,0,0,2.2.38,7.49,7.49,0,0,0,2.06-.3c7.29-2.09,14-14.93,17.28-22.4a15.09,15.09,0,0,0,1.21-4.49C414.51,329.16,416.13,312.17,414.46,304.67ZM226.29,366.53c-3.14-.63-12.46-8.82-17.81-38.79-2.29-12.81.12-16.68,1.76-17.85,2-1.42,4.78-.56,6.17,0a191.62,191.62,0,0,0,7.4,25.6,1.67,1.67,0,0,0,.92,1l.41.21a11.68,11.68,0,0,0,4.88,1.66l.51,0c1.31,6.81,3.58,19.15,4.53,28.07A23.34,23.34,0,0,1,226.29,366.53ZM389.81,329h-.31c0,18.9-3.17,61-4.84,64.33-1.58,3.16-12,16-15.78,20.67-.24.28-24.85,27.44-56.79,25.5-26.64-1.61-34.57-6.4-46.56-13.65-2.71-1.64-5.51-3.33-8.8-5.16C244.8,414.06,238.5,397.57,238.5,373c0-9.44-4.24-31.38-5.61-38.24a8.89,8.89,0,0,0-.18-1.05c-1.16-4.71.12-49,7.53-55.52,7.79-6.81,3.8-43,2.63-52.31l7.33-4.07c7.76,4.75,16.66,4.18,19.41,3.86,22.93,28.31,47.07,20.19,48.1,19.82a1.6,1.6,0,0,0,.71-.49,64.68,64.68,0,0,1,45.49-22.25c7.06-.39,11.8.54,13.56,1.24-3.12,5.24-8.1,24.44-9.64,30.58a1.71,1.71,0,0,0,.47,1.66C391.57,278.72,390.21,321.84,389.81,329Zm20.94,6.78a12.39,12.39,0,0,1-1,3.6c-2,4.39-8.84,18.87-15.37,20.74a3.92,3.92,0,0,1-3.21-.4c.7-10.91,1.19-21.82,1.28-28.63l6.4-3.66a1.71,1.71,0,0,0,.84-1.68,90.67,90.67,0,0,1,0-17.54c.31-3.11,1.18-5.27,2.49-6.23a3.11,3.11,0,0,1,2.46-.51,1.72,1.72,0,0,0,1.39-.31.69.69,0,0,0,.13-.11,3.44,3.44,0,0,1,2.67-.26c1.19.49,2.1,2,2.66,4.54C413.15,312.58,411.34,330.47,410.75,335.78Z"/><path d="M352.76,280c-3.44.86-23.44,11.05-31.88,15.39a3.16,3.16,0,0,0-1.61,2.09,2.84,2.84,0,0,0,.52,2.35,3,3,0,0,0,2.3,1.11h.26c3.31,0,8.39-3.44,9.27-4.19,1.45-.83,20.1-8.31,21.7-8.84a13,13,0,0,1,8.52-.17,21.46,21.46,0,0,1,3.92,1.48l.31.14c7.43,3.5,8.48,2.13,8.83,1.68,1-1.23-.51-3-1.13-3.72C368.47,281,357,279,352.76,280Z"/><path d="M263.1,288c1.6.53,20.24,8,21.7,8.84.88.75,5.95,4.19,9.26,4.19h.27a3,3,0,0,0,2.29-1.11,2.84,2.84,0,0,0,.52-2.35,3.13,3.13,0,0,0-1.61-2.09C289,292,267.2,280.92,263.66,280c-4.24-1.06-15.72,1-21,7.33-.63.75-2.08,2.49-1.13,3.72.35.45,1.4,1.82,8.82-1.68l.31-.14a22.8,22.8,0,0,1,4-1.5A13.15,13.15,0,0,1,263.1,288Z"/><path d="M298.86,369c1.53-.38,2.07-.06,3.36.72a15.39,15.39,0,0,0,6,2.3,13,13,0,0,0,2.2.18,13.53,13.53,0,0,0,7.34-2.22,4.32,4.32,0,0,1,2.8-.68,33.45,33.45,0,0,0,9.2-.29,10.67,10.67,0,0,0,7.79-6.11,6.34,6.34,0,0,0-.88-6.26c-2-2.61-5.34-4.41-7.83-5.47a4.43,4.43,0,0,1-2.6-3.17c-1.29-6-3.56-17.17-4.28-23.63a1.5,1.5,0,0,0-3,.34c.73,6.58,3,17.81,4.32,23.91a7.46,7.46,0,0,0,4.38,5.32c2.14.91,5,2.42,6.59,4.5a3.36,3.36,0,0,1,.48,3.39,7.7,7.7,0,0,1-5.57,4.24,31,31,0,0,1-8.35.25,7.46,7.46,0,0,0-4.7,1.14,10.4,10.4,0,0,1-7.41,1.6,12.46,12.46,0,0,1-5-1.9,6.45,6.45,0,0,0-5.64-1.08c-4.44,1.11-8.44,1.55-12.39-4.37a1.75,1.75,0,0,1-.4-1.5c.46-1.63,4-3.26,6.78-4.58s5.48-2.56,6.62-4.26c2.12-3.18,3.08-22,3.25-25.76a1.5,1.5,0,0,0-3-.14c-.48,10.61-1.64,22.58-2.75,24.24-.67,1-3.18,2.17-5.39,3.2-3.72,1.74-7.57,3.53-8.4,6.49a4.69,4.69,0,0,0,.79,4C288.69,371.5,295.31,369.84,298.86,369Z"/><path d="M332.26,387.13c-1.66-.6-10-3.63-12.26-3.63a30.52,30.52,0,0,0-4.51.46,33.7,33.7,0,0,1-5.49.54,7.41,7.41,0,0,1-1.88-.32,17.91,17.91,0,0,0-5.12-.68c-4,0-16.51,5.29-19.2,6.87a1.83,1.83,0,0,0-.86,1.89,1.74,1.74,0,0,0,1.41,1.44h0c3.79.72,13.43,1.08,28.74,1.08q10.91,0,25.63-.25l2.28,0a2.64,2.64,0,0,0,.79-.11,1.59,1.59,0,0,0,1.11-1.52C342.9,391.81,342.9,391,332.26,387.13Zm-43.35,4.08c4.7-2.07,11.84-4.71,14.09-4.71a15.23,15.23,0,0,1,4.37.58,10,10,0,0,0,2.63.42,37.21,37.21,0,0,0,5.95-.57,27.26,27.26,0,0,1,4.05-.43c1.5,0,10,2.88,15.5,5.08C308.43,392,295.21,391.69,288.91,391.21Z"/><path d="M288.25,307c0-1-.83-6.25-17.25-6.25s-18.92,5.19-19.16,5.79a1.22,1.22,0,0,0,.09,1.1c3,5,12.07,6.25,18,6.53a7.62,7.62,0,0,0,1.08.08l.48,0,1.52,0c7.38,0,14.51-6,14.81-6.3A1.24,1.24,0,0,0,288.25,307Zm-24.5,1a5.55,5.55,0,0,0,1,3.16c-4.45-.67-8.39-2-10.22-4.15.93-.94,3.8-2.95,11.52-3.57A5.86,5.86,0,0,0,263.75,308Zm13.61,3a5.52,5.52,0,0,0,.89-3,5.86,5.86,0,0,0-2.3-4.55c6.87.58,9,2.33,9.56,3.14A28.82,28.82,0,0,1,277.36,311Z"/><path d="M342.84,297.76c-16.47,2.06-17.07,8.49-17.09,9.21a1.26,1.26,0,0,0,.76,1.18,41.72,41.72,0,0,0,14.49,3.1l1.33,0c.22,0,.44,0,.67,0a8.5,8.5,0,0,0,1.84-.21c6-.62,13.42-2.64,16.16-6.29a1.22,1.22,0,0,0,.23-1,1.24,1.24,0,0,0-.54-.83C360.31,302.7,351.2,296.71,342.84,297.76ZM337,308.43a42.87,42.87,0,0,1-8.4-2.17c.64-1.16,2.62-3.35,8.56-4.9a5.69,5.69,0,0,0-1.36,3.64A5.57,5.57,0,0,0,337,308.43Zm12.55-.68a5.46,5.46,0,0,0,.75-2.75,5.85,5.85,0,0,0-2.33-4.57,33.43,33.43,0,0,1,10.1,3.83C356.13,305.83,352.9,307,349.5,307.75Z"/></svg>