<svg id="Layer_2" data-name="Layer 2" xmlns="http://www.w3.org/2000/svg" viewBox="0 0 612 792"><title>isle-of-dogs-icon</title><path d="M263.34,298.62a8.39,8.39,0,0,0-5.63-2.15c-.32,0-.65,0-1,0A8.48,8.48,0,0,0,249.3,304a8.39,8.39,0,0,0,2.1,6.6,8.45,8.45,0,1,0,11.94-11.93Z"/><path d="M371.16,309.74a8.36,8.36,0,0,0,2.1-6.6,8.45,8.45,0,0,0-7.43-7.43,7.88,7.88,0,0,0-1,0,8.34,8.34,0,0,0-5.63,2.15,8.45,8.45,0,1,0,11.93,11.93Z"/><path d="M343.19,347.62c-6.44-5.6-17.23-6.19-32.08-1.74a.37.37,0,0,1-.29,0c-3.15-1.72-17.38-5-27.41,0-5.74,2.88-9.16,7.86-10.15,14.8-.55,3.79-.05,6.87,1.52,9.4,6.4,10.33,22.36,34.94,32.21,40.18a7,7,0,0,0,3.3.8c11.59,0,29.55-24.79,37.25-36.28a10.51,10.51,0,0,0,1.68-4.27C349.94,365.84,350.79,354.23,343.19,347.62Zm3.06,22.45a7.56,7.56,0,0,1-1.2,3.05c-11.19,16.7-24.65,32.36-32.74,34.68.28-5.76,1.54-34.55,0-44.92a1.5,1.5,0,0,0-3,.44c1.51,10.15.18,39.84-.05,44.63a4,4,0,0,1-.9-.33c-9.46-5-26.18-31.21-31.07-39.11-1.18-1.91-1.54-4.33-1.1-7.4.84-5.9,3.71-10.12,8.53-12.53a26.27,26.27,0,0,1,11.67-2.39c5.95,0,11.32,1.4,12.95,2.29h0a3.36,3.36,0,0,0,2.58.27c13.8-4.13,23.64-3.75,29.25,1.13C347.69,355.51,346.9,365.87,346.25,370.07Z"/><path d="M297.21,363.71a6.59,6.59,0,0,0-2.74-1.92c-1.94-.7-4.57-.54-5.75,1.49-1.88,3.23,2.11,8.6,5.79,12.55l.2.22c.46.73,1.12,2.2.65,3-.29.54-1.06.82-2.28.82a19.12,19.12,0,0,1-4.84-.48,1.06,1.06,0,0,0-1.1.39,1,1,0,0,0-.05,1.17,8,8,0,0,0,6.71,4.16l.63,0c5.37-.43,7.45-5.24,7.67-5.79a.76.76,0,0,0,.06-.2,19.78,19.78,0,0,0-5-15.42Z"/><path d="M334.74,381.51a19.62,19.62,0,0,1-4.83.47c-1.22,0-2-.28-2.29-.82-.46-.84.19-2.31.66-3l.2-.22c3.68-3.95,7.67-9.32,5.79-12.55-1.19-2-3.82-2.19-5.75-1.49a6.55,6.55,0,0,0-2.75,1.92h0a19.83,19.83,0,0,0-4.95,15.42,1.52,1.52,0,0,0,.06.2c.22.55,2.31,5.36,7.68,5.8l.63,0a8,8,0,0,0,6.7-4.15,1,1,0,0,0-.05-1.18A1,1,0,0,0,334.74,381.51Z"/><path d="M415,394.78a85.92,85.92,0,0,1-3.77-29.3L412,365l-.63-.92a134,134,0,0,1,3-19.34c.33-1.56.64-3.07.92-4.51,2.71-14.13-.85-53.25-4.54-68.84a10.1,10.1,0,0,0-5.11-6.79c.38-.8,1.3-2.28,2.4-4.06.93-1.51,2.12-3.43,3.56-5.85,6.39-10.7,5.75-22.47,4.09-30.45a39.15,39.15,0,0,0-4.4-11.46c-1.26-2.18-1.64-6.52-2-10.72a53.2,53.2,0,0,0-1.27-9c-2.21-7.87-10.59-33.78-25.7-36.45-16.58-2.93-42,8.52-58.61,40.56-3.78,7.29,1.47,20.66,3.71,26.37.05.12.09.23.14.34a204.9,204.9,0,0,0-29.94.35c2.43-4.9,6.78-15.77,2-23.3-6.27-9.87-39.24-39.22-54.26-36.57-17.34,3.06-22.73,33.38-22.95,34.67-.82,4.77-3.36,8.7-7.76,12a16.92,16.92,0,0,0-6.41,10.08c-1.92,9.14-3.67,26.07,6.18,36.86,4.67,5.12,6.08,8.55,6.08,9.58a11.74,11.74,0,0,0-5.47,7.14c-5.15,21.75-13.08,59.65-8.37,69.06,8.54,17.09,9.88,34.78,4.08,54.08a129,129,0,0,0-5.28,39.78c.46,13.81,3.72,23.71,9.15,27.89,11.53,8.87,89.84,14,98,14.49v.05c20.16-.07,87.33-8.91,98.66-17.63,5.44-4.18,8.69-14.08,9.16-27.89A129.32,129.32,0,0,0,415,394.78ZM326.3,198.58c18.32-35.34,44.26-41,55.42-39,13.73,2.43,21.85,29,23.34,34.32a51.92,51.92,0,0,1,1.16,8.4c.42,4.73.81,9.2,2.39,12a35.7,35.7,0,0,1,4.07,10.57c1.55,7.46,2.17,18.43-3.72,28.3-1.44,2.41-2.61,4.31-3.54,5.81-2.64,4.27-3.35,5.41-2.93,6.75a2.28,2.28,0,0,0,1.39,1.41,7,7,0,0,1,3.88,5c3.63,15.35,7.16,53.78,4.51,67.58-.27,1.43-.58,2.92-.91,4.47a151.82,151.82,0,0,0-2.69,16.15c-14.62-20.21-29.35-32.13-42.79-38.93l.54,0c10.08,0,18.29-7.83,18.29-17.46s-8.21-17.45-18.29-17.45-18.29,7.83-18.29,17.45a17,17,0,0,0,5.49,12.45,70.3,70.3,0,0,0-17.73-3.15L329.1,306c-5.17-5.51-4.85-11.63-4.54-17.54.07-1.35.14-2.75.14-4.1a42.06,42.06,0,0,1,1.14-8,32.36,32.36,0,0,0,.87-5.65,12.9,12.9,0,0,0-1-5.11,24.92,24.92,0,0,1,0-18.73,25.72,25.72,0,0,1,7.55-9.89,6.44,6.44,0,0,0,2.69-5.09,6.33,6.33,0,0,0-2.42-5.13l-2.59-2c-.15-.51-.43-1.21-.83-2.24C328.22,217.61,323.14,204.66,326.3,198.58Zm24.83,105.33c0-8,6.86-14.45,15.29-14.45s15.29,6.48,15.29,14.45-6.86,14.46-15.29,14.46S351.13,311.88,351.13,303.91ZM329,227l2.68,2.11a3.34,3.34,0,0,1,1.28,2.7,3.44,3.44,0,0,1-1.45,2.73,28.76,28.76,0,0,0-8.59,11.25,27.89,27.89,0,0,0,0,21,9.69,9.69,0,0,1,.77,3.92,32.16,32.16,0,0,1-.81,5.08,44.78,44.78,0,0,0-1.2,8.57c0,1.27-.07,2.57-.14,3.95-.32,6.23-.69,13.3,5.35,19.74l4.81,5.13A60.75,60.75,0,0,0,314.09,316a12.59,12.59,0,0,1-6.07.45,98.05,98.05,0,0,0-22.27-1.25,1,1,0,0,0-.05-.24c0-.06-2.06-6.67,6.08-21.68,8.44-15.53,5.13-21.66,4.31-22.81-10.26-19.53-2.86-37.74-.21-43.07a1.5,1.5,0,0,0,.3,0A196.49,196.49,0,0,1,329,227ZM209.24,342.45c-3.08-6.17.14-31.22,8.61-67a9,9,0,0,1,4.39-5.45,2.49,2.49,0,0,0,1.12-1.83c.35-2.54-2.21-7.09-6.83-12.15-8.95-9.8-7.26-25.65-5.46-34.22a14,14,0,0,1,5.28-8.3c5.05-3.8,8-8.34,8.91-13.9,1.75-10.2,8.29-30.07,20.53-32.22a8.74,8.74,0,0,1,1.65-.14c14.18,0,44.1,26.79,49.55,35.36,4.49,7.06-1,18.39-2.86,21.75-.51.84-13.52,23.29-.64,47.67l.17.25c0,.05,3.35,5.14-4.51,19.62-7.69,14.16-6.87,21.6-6.42,23.58a85.43,85.43,0,0,0-15,2.78,17.17,17.17,0,0,0,6.7-13.5c0-9.62-8.21-17.45-18.29-17.45s-18.29,7.83-18.29,17.45,8.2,17.46,18.29,17.46l.6,0A86.59,86.59,0,0,0,236,335a95.6,95.6,0,0,0-20.66,24.11A75.72,75.72,0,0,0,209.24,342.45Zm46.91-23.27c-8.43,0-15.29-6.48-15.29-14.46s6.86-14.45,15.29-14.45,15.29,6.48,15.29,14.45S264.58,319.18,256.15,319.18Zm153.18,140.9c-10.53,8.1-75.68,16.69-96,17h0c-14.77-.65-87.15-6.35-97-13.9-10.3-7.93-10-40.55-2.82-64.43,3.72-12.42,4.6-24.2,2.63-35.59l.31.15a90.46,90.46,0,0,1,21.46-26c13.45-11.24,36.44-23.48,69.6-17.91a15.77,15.77,0,0,0,7.51-.56C326.8,315,368,307,408.31,365a89.61,89.61,0,0,0,3.84,30.67C419.32,419.52,419.63,452.15,409.33,460.08Z"/><path d="M224.74,243.61l1.34-1.11c.21-.18,21.42-17.3,52.59-11.43l.81.15.56-.6a15,15,0,0,0,3.07-12.77c-2.14-11.07-14.68-22-37.26-32.45l-1.1-.5-.73,1c-.51.67-12.48,16.51-11.28,26.48.38,3.22-2.15,6.32-4.83,9.6-4.16,5.08-9.33,11.41-4.07,20.17Zm5.49-19.77c3-3.62,6-7.37,5.48-11.86-.89-7.48,7.46-19.8,10-23.33,26,12.24,33.09,22.88,34.45,29.69a12.35,12.35,0,0,1-1.82,9.62,70.65,70.65,0,0,0-52.7,11.12C222.81,232.92,226.42,228.5,230.23,223.84Z"/><path d="M342.68,225.79c.29,0,29.65-.88,52,17.84l.41.35h.55a4.52,4.52,0,0,0,3.42-1.93c2.26-3,2.23-8.7-.09-17.05-1.28-4.6-1.77-8.09-1.48-10.66.08-.67.18-1.33.28-2,1-6.66,2.2-15-16.31-30.87L381,181l-.66.09c-.39,0-39.21,5.4-39.21,43.18v1.55Zm37.38-41.61c16.72,14.54,15.69,21.53,14.78,27.71-.11.71-.21,1.41-.29,2.11-.33,3,.16,6.75,1.57,11.8,2.64,9.51,1.56,13.06.67,14.33a2.26,2.26,0,0,1-.74.71c-20.43-16.7-45.39-18-51.91-18.07C345.07,191.17,375.07,185,380.06,184.18Z"/></svg>