<svg id="Layer_2" data-name="Layer 2" xmlns="http://www.w3.org/2000/svg" viewBox="0 0 612 792"><title>isle-of-dogs-icon</title><path d="M338.31,443c-7.78,1-28.53,0-28.74,0a1.52,1.52,0,0,0-1.51,1.09,1.5,1.5,0,0,0,.71,1.72c6.29,3.5,11.77,4.67,16.3,4.67a22.32,22.32,0,0,0,14.44-4.87,1.5,1.5,0,0,0-1.2-2.6Zm-20.81,3.28c4.3.12,9.64.21,14.21.11A23.8,23.8,0,0,1,317.5,446.29Z"/><path d="M308.15,420.89c.2,1.25,1,3,3.82,4a1.42,1.42,0,0,0,.53.1,1.5,1.5,0,0,0,.53-2.9c-1.75-.66-1.88-1.44-1.92-1.7-.34-2,2.92-5.75,5.34-7.74a1.5,1.5,0,0,0-1.9-2.32C313.82,410.94,307.4,416.34,308.15,420.89Z"/><path d="M331,412.92s2.81,1,3.49,3.27c.51,1.71-.23,3.86-2.19,6.39a1.5,1.5,0,0,0,.26,2.1,1.45,1.45,0,0,0,.92.32,1.48,1.48,0,0,0,1.18-.58c2.61-3.35,3.51-6.41,2.7-9.11-1.14-3.77-5.23-5.18-5.41-5.23a1.5,1.5,0,0,0-1,2.84Z"/><path d="M311.25,378l.5-3c-3.06-.53-30.14-4.92-35.52,3.69l2.54,1.58C282,375.09,300.42,376.11,311.25,378Z"/><path d="M334,374.08l.94,2.84c.18-.05,17.63-5.72,31.9.94l1.26-2.72C352.77,368,334.78,373.83,334,374.08Z"/><path d="M290.4,382.25c-14,1.08-14.15,12.14-14.15,12.25v.95l.92.25A59.41,59.41,0,0,0,293,398.06a33.45,33.45,0,0,0,12.7-2.27,1.27,1.27,0,0,1,.25-.1c.47-.16,1.52-.77,1.06-3C306.06,388.22,300.77,381.45,290.4,382.25Zm-1.19,2.66a6.47,6.47,0,0,0-1.1,10.37,62.29,62.29,0,0,1-9.27-1.71C279.2,391.38,280.94,386.07,289.21,384.91Zm7.62,10.43a6.48,6.48,0,0,0-.51-10.09,12.17,12.17,0,0,1,5.91,3.7,9.23,9.23,0,0,1,2.34,4.57A28.24,28.24,0,0,1,296.83,395.34Z"/><path d="M351.9,381.75c-14,1.08-14.15,12.14-14.15,12.25v.8l.73.33a28.18,28.18,0,0,0,11.91,2.57,34.74,34.74,0,0,0,15.2-3.6l.66-.35V393a12.09,12.09,0,0,0-3.62-8.23C360.09,382.42,356.48,381.4,351.9,381.75Zm-4,13.31a25.13,25.13,0,0,1-7.56-1.84c.3-2,1.83-7.27,9.6-8.69a6.49,6.49,0,0,0-2,10.53Zm9.92-.81a6.48,6.48,0,0,0-3.71-10,10.12,10.12,0,0,1,6.82,2.37,9.54,9.54,0,0,1,2.78,5.67A33.51,33.51,0,0,1,357.8,394.25Z"/><path d="M492.87,272.89c-2.66-6-5-11.48-7.23-16.8-11-25.93-18.9-44.67-44.18-65.74-28.85-24-69.13-28-72.61-28.33a204,204,0,0,0-30.29-8.86c-15.94-3.35-38.69-5.91-56.6.94-33.76,12.91-67,27-75.13,31.06-5.15,2.57-13.94,16.66-24.13,33-6.58,10.55-13.39,21.45-19.4,29.47-14.89,19.85-26,49.69,4.82,120.5,27,62.15,49.51,65.95,54.58,65.95h.05c4.68,6.56,9.79,10.24,15.18,10.94a12.81,12.81,0,0,0,6.57-.82l24,11.66c12.67,19.15,31.95,31.41,53.5,31.41,21.07,0,39.95-11.71,52.62-30.12a15.1,15.1,0,0,0,4.5.64c25.61,0,85.4-48.55,93.61-60.41C482.25,383.61,509,309.16,492.87,272.89ZM322,484.24c-23.23,0-43.69-15-55.47-37.65-4.28-12-12.13-38.71-8.77-65.09,2.63-14.39,8-27.5,15.85-38.1.92-1.1,1.88-2.18,2.9-3.24.13-.14,12.66-13.67,24.45-17.48A12.43,12.43,0,0,0,306.5,328c4.92,2.44,11.56,2.16,19.76-.83,2.46,1.72,11,6.88,21.26,4.17,1.8,4.79,7,11.45,17.1,10.05.73.67,2.21,2.1,4.1,4.22A90.36,90.36,0,0,1,388.07,402C388.07,447.35,358.43,484.24,322,484.24Z"/></svg>