<svg id="Layer_2" data-name="Layer 2" xmlns="http://www.w3.org/2000/svg" viewBox="0 0 612 792"><title>isle-of-dogs-icon</title><path d="M473.33,420.35c3.81-25-3.62-45.37-12.16-68.72l-1.61-4.42c-9-24.63-19.12-45.65-20.58-48.62,2.46-44.18-5.32-75-23.12-91.56-15.23-14.2-32-12.22-32.72-12.13l-.56.07-.38.42c-53.18,60.35-47,85.86-42.64,93.48l-47,.3C297,281.5,303,256,249.91,195.72l-.37-.42-.56-.07c-.71-.09-17.49-2.06-32.73,12.13-17.8,16.58-25.58,47.38-23.12,91.56-1.45,3-11.62,24-20.58,48.62-13,35.73-17.39,61.68-13.08,77.12,1.56,5.56,2.79,10.53,3.88,14.92,6.13,24.73,9.2,37.14,50.07,80,22.22,23.28,42.26,37.23,55.16,44.84,13.13,7.74,23.38,11.53,25.81,11.62l12.8,1.9,1,.15a69.08,69.08,0,0,0,10,.73,77.55,77.55,0,0,0,13.42-1.2c2.73-.48,5.51-.88,8.25-1.21L351.58,575c1.32-.08,16.71-4.22,24.71-9.23,17.42-10.88,28.74-26,44.41-46.84,3.46-4.61,7-9.39,11-14.52,4.86-6.31,8.93-11.44,12.53-16,18.28-23,21.09-26.54,28.45-64.24.24-1.24.44-2.46.63-3.68l.08,0A.88.88,0,0,0,473.33,420.35ZM196,299.89l.17-.35,0-.4c-2.47-43.4,5-73.53,22.09-89.53a41.17,41.17,0,0,1,29.82-11.45c61.74,70.25,40.73,91.21,40.52,91.4l-3,2.65,56.93-.36,3.78,0-2.78-2.58c-.05-.05-5.38-5.17-3.17-18.81,3.75-23.15,25.74-52.17,43.69-72.61a41.08,41.08,0,0,1,29.76,11.4C430.74,225,438.4,256,436,298.81l0,.4.18.35c.11.22,11.06,22.37,20.62,48.68l1.62,4.42c7.76,21.24,14.6,39.93,12.65,61.86-8.47-18.07-25.24-27-35.66-32.54-1.64-.87-3.06-1.63-4.27-2.32-5-2.88-7.38-9.44-10.13-17-5.24-14.45-11.76-32.43-39.39-40.72-20.16-6.05-37.35-5-51.1,3a48.55,48.55,0,0,0-16.59,16.15,47.68,47.68,0,0,0-17.06-15.47c-14.29-7.72-32-8.5-52.63-2.31-29.23,8.77-34.52,30.19-38.77,47.39-2.78,11.23-5,20.1-13.21,21.57-17.58,3.14-27.45,15.11-31.29,20.91C159.82,373.35,195.6,300.7,196,299.89Zm245.87,186.7c-3.6,4.52-7.68,9.66-12.56,16-4,5.14-7.54,9.92-11,14.54-15.47,20.62-26.65,35.51-43.59,46.1-7.63,4.76-22,8.6-23.38,8.78l-11.77,1.38c-2.8.33-5.63.75-8.42,1.23a70.28,70.28,0,0,1-22.5.46l-1-.15c-12.28-1.82-13-1.93-13.15-1.93h0c-3.22-.15-38-12.74-78.89-55.54-40.31-42.23-43.13-53.63-49.32-78.6-1.09-4.41-2.33-9.41-3.9-15a39.78,39.78,0,0,1-1.17-6.45l.52.27c.09-.19,9.54-18.63,31-22.47,10.17-1.81,12.68-12,15.6-23.8,4.07-16.46,9.13-37,36.72-45.24,19.84-6,36.78-5.25,50.35,2.08A44.07,44.07,0,0,1,312,343.74l1.9,3.11,1.51-2.52c7.31-12.42,25.51-31.47,65.29-19.54,26.18,7.85,32.42,25,37.43,38.86,2.95,8.15,5.5,15.18,11.45,18.61,1.26.72,2.69,1.48,4.36,2.37,11,5.83,29.22,15.56,36.31,36-.16,1-.33,2-.53,3C462.51,460.62,460.16,463.58,441.87,486.59Z"/><path d="M265.4,373.83a10.45,10.45,0,1,0,3.48,7.79A10.5,10.5,0,0,0,265.4,373.83Z"/><path d="M276.28,371.83c-2.07-3-12.56-11-21.2-10-9.26,1.14-20.47,4.75-21.31,15.5-.8,10.17,1.81,17,8.22,21.58a19.84,19.84,0,0,0,9,3.44l5.31.68h.16c.7-.06,1.54-.09,2.43-.11,6.47-.17,17.28-.45,19.26-15.9C278.87,381.86,279.16,376,276.28,371.83Zm-1,14.84c-1.66,12.9-10.16,13.12-16.36,13.28-.88,0-1.71.05-2.46.1l-5-.63a17,17,0,0,1-7.68-2.91c-3.73-2.66-7.89-7.2-7-18.9.55-7,6.84-11.31,18.68-12.76a9.5,9.5,0,0,1,1.31-.08c7.31,0,15.8,7,17.06,8.78C275.64,376.18,276.07,380.11,275.23,386.67Z"/><path d="M370.12,372a10.45,10.45,0,1,0,9.2,9.2A10.53,10.53,0,0,0,370.12,372Z"/><path d="M372.29,362.68c-8.66-1.07-19.14,7-21.2,10-2.89,4.15-2.59,10-1.93,15.22,1.66,13,9,14.35,15,14.35.85,0,1.67,0,2.44,0a29.27,29.27,0,0,1,3.24,0l.19,0,7.84-1.38c3.72-.48,7.57-2.9,9.54-4.3,5.14-3.65,7.14-6.33,6.2-18.31C392.75,367.43,381.54,363.81,372.29,362.68Zm13.37,31.37c-1.41,1-5,3.37-8.21,3.77l-7.57,1.33c-1-.07-2.18,0-3.39,0-6,.2-12.8.43-14.35-11.68-.84-6.56-.42-10.49,1.41-13.13,1.26-1.82,9.75-8.78,17.07-8.78a11.2,11.2,0,0,1,1.3.08c11.85,1.46,18.13,5.76,18.69,12.77C391.47,389.45,389.82,391.09,385.66,394.05Z"/><path d="M309,494l.83.06,3.21.23a1.53,1.53,0,0,0,.37.08h.13a1.43,1.43,0,0,0,.22,0c.81,0,1.48.07,2.06.07A9.17,9.17,0,0,0,321,493l1-.48.69-.34c4.91-2.36,19.83-9.54,23.33-35.45.08-.62.09-1.67.1-3,0-1.53,0-3.42.16-5l0-.28c.22-2.48.64-7.09-3.11-11.14-4.6-4.94-14.15-7.31-28.4-7.07a21.41,21.41,0,0,1-3.35-.22c-.69-.1-16.93-2.29-26.84,5.33-13.75,10.58,6.36,42.29,7.75,44.43C293,481,299.48,493.28,309,494Zm-22.62-56.3c5.2-4,13-5.09,19-5.09a42.34,42.34,0,0,1,5.6.35,23.79,23.79,0,0,0,3.82.25C328.21,433,337,435,341,439.32c2.84,3.06,2.52,6.67,2.32,8.82l0,.29c-.14,1.69-.16,3.66-.17,5.23,0,1.14,0,2.21-.08,2.64-3.27,24.31-17.1,31-21.65,33.15l-.73.35-1,.5a7,7,0,0,1-4.45,1.08c1.64-21.57.31-39.7-.14-41a1.53,1.53,0,0,0-1.9-1,1.45,1.45,0,0,0-1,1.86c.33,1.51,1.62,18.84,0,40l-2.11-.16-.83-.06c-8.14-.6-14.23-12.56-14.29-12.68l-.08-.14C289.22,469.46,276.65,445.2,286.42,437.69Z"/><path d="M299.13,460.38a7.94,7.94,0,0,0,5.42-2.68l.21-.2a10.87,10.87,0,0,0,2.48-3.92,5.57,5.57,0,0,0-1.53-6.34,7.9,7.9,0,0,0-6.11-1.83,6.5,6.5,0,0,0-4.94,2.88,6.31,6.31,0,0,0-.77,5,3.75,3.75,0,0,1,0,1.79,1.52,1.52,0,0,1-.33.43l-.1.09c-1.45,1.53-3.74,1.5-5,1.34h0c-1.45,0-2,.11-2.05.54a.54.54,0,0,0,.16.5c.76.86,5.38,2.49,10.73,2.49C297.92,460.45,298.52,460.43,299.13,460.38Z"/><path d="M322.4,459l.21.2a7.83,7.83,0,0,0,5.34,2.66c.61,0,1.22.06,1.81.06,5.31,0,9.88-1.6,10.63-2.44a.48.48,0,0,0,.14-.4c-.06-.3-.39-.47-1.94-.44h0c-1.26.16-3.59.19-5.08-1.38l-.09-.08a1.44,1.44,0,0,1-.36-.48,3.63,3.63,0,0,1,0-1.85,6.25,6.25,0,0,0-.76-4.89,6.37,6.37,0,0,0-4.85-2.83,7.8,7.8,0,0,0-6,1.79,5.46,5.46,0,0,0-1.51,6.22A10.75,10.75,0,0,0,322.4,459Z"/><path d="M362.43,528.32a1.51,1.51,0,0,0-2.11.25c-4.93,6.23-18.55,6.24-29.75,0-4.66-2.59-17.24-2.67-21.94.68a26.36,26.36,0,0,1-30.26,1,1.5,1.5,0,1,0-1.74,2.44A30.91,30.91,0,0,0,293,537.53a28.76,28.76,0,0,0,15.16-4.37,22.15,22.15,0,0,0,26.13.6l.08-.06c12.28,4.76,23.79,2.41,28.29-3.27A1.51,1.51,0,0,0,362.43,528.32Zm-51.56,3.11c3.91-2.19,14.34-2.38,18.25-.21.63.35,1.27.68,1.91,1A18.84,18.84,0,0,1,310.87,531.43Z"/></svg>