<svg id="Layer_2" data-name="Layer 2" xmlns="http://www.w3.org/2000/svg" viewBox="0 0 612 792"><title>isle-of-dogs-icon</title><path d="M414.22,197c-8.74-17.48-24.12-30.69-32.25-27.71-2.93,1.07-5.89,4.54-3.36,15,2.68,11.06-.85,24.37-10.49,39.56-7.73,12.19-19.55,25.52-33.29,37.54-7.25,6.35-18.7,19-13.93,32.5a2.25,2.25,0,0,1-.27,2.06,2.11,2.11,0,0,1-1.74.89h0l-17.2-.09a1.3,1.3,0,0,1-1.13-.63,1.27,1.27,0,0,1-.08-1.26c4-8.41,12.08-30.51,1.73-54.1-2.45-5.59-4.48-10.46-6.28-14.76-2.5-6-4.53-10.83-6.47-14.66a3.23,3.23,0,0,0-.26-.83l-.13.07c-5.61-10.73-10.75-13.09-25.17-10.6-7,1.21-16.14,1.17-25.84,1.14-22.45-.08-47.9-.17-54.46,15.86-5.28,12.9-4.32,22.82-3.3,33.32,1.14,11.87,2.33,24.14-5.07,42.64-9.47,23.68,6.48,37.94,19.3,49.39,3.27,2.93,6.37,5.69,9,8.48a9,9,0,0,1,2,8.44c-6.76,24.65-1.19,40.33,2.73,47.49a10.79,10.79,0,0,1,.94,8.25c-2.74,9.43-6.59,29.31-1.6,56.5,6.83,37.16,14.85,71.41,37.68,82.16,28.29,13.31,51.36,17.73,69.95,17.73,25.49,0,42.56-8.31,53.05-13.43,1.59-.77,3-1.47,4.34-2.07A78.41,78.41,0,0,0,388.23,546c16.94-14.33,19.49-30.51,23.36-55,.9-5.69,1.83-11.57,3-18.11,5-27.35,1.09-47.92-1.7-57.74a10.74,10.74,0,0,1,.84-8.15c9.79-17.92,6.3-37.06,3.35-46.88a6.46,6.46,0,0,1,2.4-7.16c9.19-6.54,13.81-15.88,21.51-43.49C450.2,276.6,428.17,224.9,414.22,197Zm-181,7.11H238c9.83,0,19.12.07,26.36-1.18,12.76-2.21,17-.83,22.21,9.4.1,1.27-.4,5.43-6.39,17.73-11.66,24-31.5,53.76-36.66,56.89-2.5-12-48.63-61.1-56.79-69.71C192.7,205,213.5,204.11,233.25,204.11ZM438.14,308.66c-7.48,26.8-11.86,35.79-20.37,41.84A9.47,9.47,0,0,0,414.24,361c2.81,9.36,6.16,27.61-3.11,44.57A13.76,13.76,0,0,0,410,416c2.72,9.57,6.55,29.62,1.64,56.38-1.21,6.58-2.18,12.74-3,18.19-3.9,24.67-6.25,39.56-22.34,53.17a74.7,74.7,0,0,1-15,9.45c-1.33.61-2.79,1.32-4.4,2.1-17.74,8.65-54.65,26.63-120.41-4.32-21.55-10.14-29.33-43.62-36-80-4.88-26.59-1.14-45.95,1.53-55.12a13.8,13.8,0,0,0-1.19-10.53c-8.95-16.33-4.7-37.09-2.46-45.26a12,12,0,0,0-2.73-11.27c-2.68-2.89-5.82-5.7-9.15-8.68-12.75-11.39-27.21-24.31-18.51-46,7.67-19.18,6.39-32.38,5.26-44-.92-9.51-1.79-18.52,2.26-29.71,16.43,17.4,54,58.8,55.13,67.47a2.5,2.5,0,0,0,1.72,2.34,2.28,2.28,0,0,0,.7.1c1.39,0,3.29-1.22,7-5.63,10.12-12.1,34.18-51.07,38.73-67.62,1.29,2.88,2.7,6.25,4.35,10.19,1.8,4.32,3.84,9.2,6.31,14.81,9.85,22.46,2.09,43.58-1.71,51.62a4.34,4.34,0,0,0,3.91,6.17l17.21.09a5.1,5.1,0,0,0,4.21-2.15,5.26,5.26,0,0,0,.66-4.8c-2.19-6.2-1.71-16.31,13.08-29.24,12.41-10.86,52.31-48.73,44.72-80.07-1.55-6.38-1-10.57,1.47-11.48,5.24-1.92,19.54,8.25,28.54,26.24C443.58,262.43,442,295,438.14,308.66Z"/><path d="M276,368.73a15,15,0,1,0-15,15A15,15,0,0,0,276,368.73Z"/><path d="M373.26,377.54a15,15,0,1,0-11.17,5A15.1,15.1,0,0,0,373.26,377.54Z"/><path d="M382.23,414.14c-.35-.91-.69-1.83-1-2.76-2.7-7.39-5.69-15.54-15.92-22.27h.43a34.33,34.33,0,0,0,7.12-.72c3.76-.66,10-3.86,13.09-9.34,2.54-4.55,2.54-10,0-15.65-.09-.2-.18-.49-.31-.86-1.41-4.18-5.71-16.89-27.83-15.74-9.11.46-12.38,6.11-14.13,9.14-.28.48-.52.9-.75,1.23-2.55,3.67-3.78,10.62-1.18,16.79a25.26,25.26,0,0,0,4.67,7.44,41.17,41.17,0,0,0-28.95,5.06c-3.67,1.3-5.64,1.83-8.37.21A41.19,41.19,0,0,0,277.21,382a26,26,0,0,0,4.17-6.88c2.6-6.17,1.37-13.12-1.18-16.8-.23-.33-.47-.75-.75-1.22-1.75-3-5-8.68-14.13-9.15-22.11-1.15-26.42,11.57-27.83,15.74-.13.37-.22.66-.31.86-2.55,5.69-2.55,11.11,0,15.66,3.07,5.47,9.34,8.67,13.1,9.33a33.36,33.36,0,0,0,7.11.73c.64,0,1.31,0,2-.06-9,6.51-11.8,14.19-14.36,21.19-.34.93-.68,1.85-1,2.75a67.92,67.92,0,0,0-3,10.58c-4.75,27.74-7.12,102.61,6.86,117.07,17.4,18,43.49,20.64,57.44,20.64,3.71,0,6.56-.19,8.16-.33,1.66.13,4.24.28,7.49.28,13.94,0,40-2.67,57.43-20.64,14-14.46,11.61-89.33,6.86-117.07A65.51,65.51,0,0,0,382.23,414.14ZM344.47,372.8c-2.17-5.17-1.2-10.92.88-13.92.29-.41.56-.89.88-1.43,1.68-2.9,4.21-7.27,11.69-7.66.9,0,1.76-.07,2.59-.07,17.58,0,20.95,9.93,22.25,13.78.16.48.3.87.41,1.13,2.18,4.86,2.22,9.22.13,13A17.35,17.35,0,0,1,372,385.48v0a31.09,31.09,0,0,1-10.94.31,23.89,23.89,0,0,1-3.31-.75c-.86-.38-1.73-.75-2.66-1.11l-1.23-.46A20.68,20.68,0,0,1,344.47,372.8Zm-28.88,48.49v-.07c2.75,0,22.69.49,28.41,10.51,6.26,10.95,8.64,20.57,6.52,26.38-2,5.44-6.1,12.48-14.51,15.11l-3.19,1c-5.91,1.8-7.14,2.17-12.74,6.44-3.37,2.57-4.38,2.61-4.42,2.61a.75.75,0,0,1,.51.27.82.82,0,0,1,.2.38l-1.16,0a.74.74,0,0,1,.62-.68c-.05,0-1,0-4.25-2.64-5.2-4.25-6.75-4.71-11.89-6.22-1.14-.34-2.47-.73-4.09-1.23-8.41-2.63-12.53-9.67-14.51-15.11-2.11-5.81.27-15.42,6.53-26.38C293.72,420.93,315.37,421.29,315.59,421.29Zm-64.52-34.6v0a17.31,17.31,0,0,1-11.29-7.89c-2.09-3.74-2-8.1.13-13,.11-.26.25-.64.41-1.13,1.36-4,5-14.73,24.84-13.7,7.48.38,10,4.75,11.69,7.65.32.55.59,1,.88,1.43,2.08,3,3.05,8.75.88,13.93a20.46,20.46,0,0,1-16.51,13A31.33,31.33,0,0,1,251.07,386.69ZM385.81,487.82c-.6,27.68-4,46.1-9.6,51.88-12,12.46-28.89,17-40.89,18.7a108.77,108.77,0,0,1-20.83.81l0-.17-1,.1c-1.08-.08-1.68-.15-1.71-.16l0,.28a107.62,107.62,0,0,1-20.74-.8c-12-1.64-28.89-6.22-41-18.71C236.9,526.2,239.41,451.8,244,425.28a64.53,64.53,0,0,1,2.84-10c.36-.92.7-1.85,1.05-2.8,3.38-9.25,6.88-18.81,24.37-25.67,15.53-6.1,27.78-2,35.32,2.45a10,10,0,0,0,3.47,1.31l.72,27.84c-7,.42-21.39,2.43-26.71,11.73-6.7,11.72-9.15,22.25-6.74,28.89,2.21,6.08,6.86,14,16.44,17,1.63.51,3,.91,4.14,1.25,5,1.49,6.1,1.79,10.83,5.66a17.24,17.24,0,0,0,4.75,3l.05,0a2.43,2.43,0,0,0,1.18.29c1.4,0,3.34-1,6.23-3.22,5.18-3.95,6.06-4.22,11.81-6l3.21-1c9.58-3,14.22-10.87,16.43-16.95,2.42-6.64,0-17.17-6.73-28.89-7-12.23-30.39-12-31.38-12v.07h-.52L314,390.56a26.33,26.33,0,0,0,4.77-1.4h0c7.36-4.36,19.18-8.29,34.13-2.83a24.12,24.12,0,0,0,3.51,1.42c15.41,6.78,18.75,15.87,22,24.67.34.95.69,1.89,1,2.81a64.42,64.42,0,0,1,2.85,10C384.37,437.45,386.37,462.25,385.81,487.82Z"/><path d="M292.18,454.41a.38.38,0,0,1-.09.09l-.13.13c-1.15,1.22-3.18,1.1-4,1h-.16c-1.15,0-2.89-.06-3.18,1.45a1.68,1.68,0,0,0,.42,1.46c1.14,1.28,6.26,2.87,11.63,2.87.61,0,1.22,0,1.83-.07a9,9,0,0,0,6.12-3l.21-.2a11.73,11.73,0,0,0,2.78-4.4,6.68,6.68,0,0,0-1.81-7.46,9,9,0,0,0-7-2.16,7.62,7.62,0,0,0-5.77,3.4,7.49,7.49,0,0,0-.94,5.77A4.64,4.64,0,0,1,292.18,454.41Z"/><path d="M325.39,458.66l.21.2a9,9,0,0,0,6.12,3q.91.06,1.83.06c5.37,0,10.49-1.58,11.63-2.86a1.68,1.68,0,0,0,.42-1.46c-.29-1.51-2-1.48-3.18-1.46h-.16c-.82.11-2.86.22-4-1l-.13-.13-.07,0a3.86,3.86,0,0,1,.1-1.18,7.5,7.5,0,0,0-.94-5.77,7.61,7.61,0,0,0-5.77-3.39,9,9,0,0,0-7,2.16,6.67,6.67,0,0,0-1.81,7.45A11.77,11.77,0,0,0,325.39,458.66Z"/></svg>