<svg id="Layer_2" data-name="Layer 2" xmlns="http://www.w3.org/2000/svg" viewBox="0 0 612 792"><title>isle-of-dogs-icon</title><path d="M298.9,378.84a19.25,19.25,0,0,0,4.39.52,17.15,17.15,0,0,0,9.71-3c11.51-7.71,16.42-28.12,18.33-39.61a14.78,14.78,0,0,0-9.9-16.54c-3.8-1.27-8.1-1.34-15.21-1.45-2,0-4.17-.07-6.64-.14h0c-.81,0-19.74-.22-24.3,7.93-2.87,5.11-3.38,20.77,2.33,33.67C282,370.21,289.4,376.66,298.9,378.84Zm-21-50.84c3-5.29,15.76-6.4,21.11-6.4h.53c2.48.07,4.69.1,6.66.14,6.83.11,10.95.17,14.32,1.3a11.94,11.94,0,0,1,7.88,13.2c-1.47,8.86-6.07,30.26-17,37.61a14.2,14.2,0,0,1-7.16,2.49c1.8-22.13.42-40.93,0-42.3a1.53,1.53,0,0,0-1.9-1,1.47,1.47,0,0,0-1,1.86c.34,1.54,1.68,19.56-.1,41.3-.53-.07-1.06-.17-1.6-.29-8.66-2-15.14-7.69-19.23-16.93C274.91,346.73,275.66,332,277.87,328Z"/><path d="M291,349.24a6.32,6.32,0,0,0,2.23-.4,3.69,3.69,0,0,0,2.64-2.69,9.34,9.34,0,0,0-2.23-7.31,7.28,7.28,0,0,0-6-2.53,12.22,12.22,0,0,0-9.35,5.31.5.5,0,0,0-.05.43.52.52,0,0,0,.32.31A17.84,17.84,0,0,1,286,347,7,7,0,0,0,291,349.24Z"/><path d="M311.81,349.2a6.31,6.31,0,0,0,2.22.4,7,7,0,0,0,5-2.2,17.84,17.84,0,0,1,7.47-4.68.5.5,0,0,0,.31-.31.47.47,0,0,0,0-.43,12.22,12.22,0,0,0-9.35-5.31,7.27,7.27,0,0,0-6,2.53,9.34,9.34,0,0,0-2.23,7.31A3.69,3.69,0,0,0,311.81,349.2Z"/><path d="M484.89,381.5l-.84-1.19c-6.32-8.94-11.32-16-14.33-31.45-1.58-8.1-1-17.53-.28-28.44,1.79-27.88,4-62.58-30.34-96.51a28.69,28.69,0,0,0-4.51-3.59c-13-8.43-60.29-34.07-123.8-10a14.33,14.33,0,0,1-10.43-.12l-.23-.09c-8.62-3.47-26.58-10.68-49.14-12.38-28-2.11-53.59,5-76,21.18-19,13.71-30,28.65-33.57,45.66-3.2,15-.41,29.7,2.29,43.9,2.65,14,5.16,27.2,2,39.93C144,355.15,138.41,360,133,364.61c-5.15,4.41-10.49,9-12.57,15.22-9.18,27.55,19.25,59.49,28.18,68.62a3.18,3.18,0,0,0,5.31-3.2c-2.78-8.8-5.4-25.61,8.28-39.35,20.69-20.78,30.89-37.53,25.58-66.47-2.78-15.14.38-16.83,4-18.77,3-1.59,6.68-3.55,7.08-11.78a110.06,110.06,0,0,0-1.61-23.46c-1.81-11.82-2.82-18.42,9.24-27.85-3.81,13.55-10.72,44.53,1.68,56.35,8.15,7.76,6,18.67,2.47,36.74-2.12,10.78-4.75,24.21-5.62,40.43a30.45,30.45,0,0,0,3.36,15.61c8.69,16.75,36.13,55.75,102.94,56.11h.33c40.56,0,82.33-40.84,89.46-53.29l.64-1.1c2.89-5,5.87-10.2,5.88-16.28,0-.51,0-1,0-1.54a294.79,294.79,0,0,0-5.92-44.38c-3.25-16.63-5-25.78,2.75-33.2h0c12-12,5.2-42.52,1.43-56,11.83,9.85,10.31,19.75,8.57,31.19-1,6.34-2,12.9-.95,20.15s4.46,9.19,7.23,10.8c3.63,2.1,6.76,3.91,3.88,19.61-2.57,14-1.63,25.49,3,36.21,4,9.29,10.74,18.34,22.62,30.27,12.47,12.54,10.84,26.13,7.28,35.32a2.76,2.76,0,0,0,4.69,2.77C476.48,426.23,492.88,392.81,484.89,381.5Zm-80.29,9.26c0,.46,0,.92,0,1.38,0,5.28-2.66,9.89-5.48,14.78l-.64,1.11c-3,5.25-14.91,18.42-30.93,30-13.7,9.94-34.49,21.75-55.92,21.75h-.32c-65.18-.36-91.85-38.23-100.3-54.5a27.35,27.35,0,0,1-3-14.06c.86-16,3.46-29.32,5.56-40,2.7-13.8,4.72-24.09,1.64-32.13a72.84,72.84,0,0,1,39.26-22.65h0a14.85,14.85,0,0,0,5.19-1c11.09-1.62,24.21-1.19,39.52,2.86a24.71,24.71,0,0,0,10.75.43c13.28-2.42,58.44-7.8,86.4,22.77-1.27,6.59.29,14.59,2.36,25.21A292.71,292.71,0,0,1,404.6,390.76Zm-143.26-99.5a9.45,9.45,0,1,0-11.36,1.3,10.8,10.8,0,0,1-6.78-9.89,11.33,11.33,0,0,1,22.63,0A10.64,10.64,0,0,1,261.34,291.26Zm105.55-5.57a9.45,9.45,0,0,0-18.84,1.07,9.39,9.39,0,0,0,2.92,6.82,10.61,10.61,0,0,1-4.49-8.58,11.33,11.33,0,0,1,22.63,0,10.8,10.8,0,0,1-6.78,9.88A9.44,9.44,0,0,0,366.89,285.69Zm93.84,154.65c3-8.51,5.14-23.53-8.45-37.18-20.42-20.51-29.86-36-24.75-63.81,3.27-17.79-1.1-20.32-5.33-22.76-2.66-1.54-4.95-2.87-5.76-8.62-1-6.81,0-13.15.94-19.28,1.84-12,3.57-23.36-10.23-34.46a2.78,2.78,0,0,0-3.27-.14,2.73,2.73,0,0,0-1.12,3c2.81,9.84,11.06,42.81-.68,54h0a19.63,19.63,0,0,0-4.75,7.09,76.57,76.57,0,0,0-34.52-20.31,13.82,13.82,0,0,0,9.3-12.9,14.32,14.32,0,0,0-28.63,0,13.51,13.51,0,0,0,4.28,9.82,130,130,0,0,0-38.32,1,21.6,21.6,0,0,1-9.46-.37,109.36,109.36,0,0,0-35.17-3.25,13.49,13.49,0,0,0,4-9.56,14.32,14.32,0,0,0-28.63,0,13.77,13.77,0,0,0,8.1,12.41,71.68,71.68,0,0,0-34.49,21.11,20.36,20.36,0,0,0-3.57-4.44c-11.76-11.2-3.48-44.22-.66-54.07a2.71,2.71,0,0,0-1.09-3,2.79,2.79,0,0,0-1.57-.49,2.74,2.74,0,0,0-1.67.57c-14.09,10.75-12.85,18.86-11,31.14a107.61,107.61,0,0,1,1.59,22.85c-.32,6.53-2.72,7.8-5.49,9.28-5.14,2.73-8.54,5.9-5.59,22,5.1,27.8-4.33,43.3-24.76,63.82-14.79,14.86-12,32.92-9,42.37a.16.16,0,0,1-.08.22.16.16,0,0,1-.23,0c-8.63-8.83-36.12-39.64-27.47-65.57,1.82-5.46,6.6-9.56,11.67-13.89,5.8-5,11.8-10.08,13.71-17.74,3.35-13.37.78-26.9-1.94-41.22-5.32-28-10.82-57,30.1-86.56,21.78-15.75,46.68-22.68,74-20.63,22.1,1.67,39.76,8.76,48.25,12.17l.22.09a17.24,17.24,0,0,0,12.62.14c62.18-23.58,108.41,1.46,121.1,9.7a25.71,25.71,0,0,1,4,3.21c33.39,33,31.21,66.9,29.46,94.17-.69,10.67-1.33,20.74.32,29.22,3.14,16.08,8.56,23.73,14.83,32.6l.84,1.19C488.64,392,475.6,422,460.73,440.34Z"/><path d="M345.39,417.22c-10.81,7.21-26.86,7.06-35.07,2.4a9.37,9.37,0,0,0-9.82.42c-13.49,9.14-32.2-1.75-32.39-1.86a1.5,1.5,0,1,0-1.53,2.58c.73.44,16.28,9.5,30.3,4.46a11.85,11.85,0,0,0,7.22,3.57c.32,0,.63,0,.94,0,3.16,0,6.33-1.41,9.46-4.21l.07-.07c9.4,2.64,22.62,1.74,32.48-4.83a1.5,1.5,0,0,0-1.66-2.5Zm-41,8.58a8.45,8.45,0,0,1-4.51-1.9,26.4,26.4,0,0,0,2.3-1.38,6.35,6.35,0,0,1,6.65-.29,21.76,21.76,0,0,0,2.42,1.18A10,10,0,0,1,304.4,425.8Z"/></svg>