<svg aria-hidden="true" style="position: absolute; width: 0; height: 0; overflow: hidden;" version="1.1" xmlns="http://www.w3.org/2000/svg" xmlns:xlink="http://www.w3.org/1999/xlink">
<defs>
<symbol id="icon-isle-of-dogs-icon_Atari" viewBox="0 0 25 32">
<title>isle-of-dogs-icon_Atari</title>
<path d="M10.586 12.39c0.076-0.033 0.293-0.117 0.384-0.117 0.114 0 0.865 0.078 1.164 0.121h0.007c0.021-0 0.039-0.013 0.047-0.032l0-0c0.017-0.040 0.092-0.248-0.024-0.306-0.083-0.040-0.87-0.107-1.11-0.126h-0.010c-0.016 0-0.396 0.048-0.525 0.396-0.002 0.005-0.003 0.011-0.003 0.018 0 0.014 0.006 0.027 0.016 0.036l0 0c0.009 0.009 0.021 0.014 0.035 0.014 0.007 0 0.013-0.001 0.019-0.004l-0 0z"></path>
<path d="M14.66 12.053h-0.008c-0.030-0.003-0.737-0.081-0.945-0.040-0.135 0.027-0.199 0.138-0.172 0.296 0.004 0.026 0.019 0.048 0.040 0.061l0 0c0.013 0.008 0.029 0.013 0.047 0.013 0.009 0 0.019-0.002 0.027-0.004l-0.001 0c0.091-0.028 0.345-0.086 0.746-0.025 0.518 0.081 0.723 0.121 0.725 0.121h0.010c0 0 0.001 0 0.002 0 0.028 0 0.050-0.023 0.050-0.050 0-0.012-0.004-0.024-0.012-0.032l0 0c-0.133-0.155-0.306-0.272-0.502-0.338l-0.008-0.002z"></path>
<path d="M16.853 13.216c-0.046-0.087-0.107-0.141-0.176-0.155-0.030-0.008-0.064-0.012-0.099-0.012-0.050 0-0.098 0.009-0.143 0.026l0.003-0.001c0.019-0.13 0.033-0.283 0.037-0.439l0-0.005c0.001-0.037 0.002-0.081 0.002-0.125 0-0.281-0.028-0.556-0.080-0.822l0.004 0.027c-0.040-0.21-0.071-0.465-0.087-0.723l-0.001-0.018c-0.028-0.509-0.104-0.97-0.747-1.452-0.873-0.655-2.269-0.693-3.023-0.657-0.933 0.044-1.79 0.432-2.617 1.185-0.572 0.52-0.61 1.947-0.557 2.95-0.036-0.022-0.080-0.035-0.126-0.035-0.009 0-0.018 0-0.026 0.001l0.001-0c-0.104 0.013-0.196 0.097-0.273 0.25-0.162 0.32 0.048 1.076 0.186 1.499 0.035 0.104 0.090 0.192 0.162 0.265l-0-0c0.096 0.097 0.158 0.186 0.174 0.251 0.004 0.017 0.008 0.034 0.011 0.053 0.020 0.095 0.044 0.214 0.148 0.262 0.027 0.013 0.059 0.020 0.092 0.020 0.001 0 0.003 0 0.004-0h-0c0.077 0 0.172-0.031 0.29-0.095 0.047 0.091 0.096 0.178 0.147 0.259 0.040 0.063 0.078 0.127 0.117 0.191 0.364 0.598 0.744 1.216 1.529 1.367 0.054 0.018 0.626 0.202 1.023 0.202h0.222c0.415 0 1.025-0.028 1.542-0.373 0.448-0.298 0.895-1.14 1.123-1.638 0.025 0.023 0.056 0.040 0.090 0.047l0.001 0c0.018 0.004 0.039 0.006 0.060 0.006 0.001 0 0.001 0 0.002 0h-0c0.118-0.004 0.225-0.048 0.308-0.12l-0.001 0.001c0.269-0.268 0.408-0.612 0.568-1.010 0.029-0.072 0.058-0.144 0.089-0.219 0.161-0.383 0.123-0.768 0.019-0.962zM9.668 15.448c-0.057-0.027-0.075-0.11-0.092-0.191-0.004-0.020-0.008-0.040-0.013-0.057-0.021-0.084-0.088-0.184-0.2-0.297-0.061-0.062-0.108-0.138-0.136-0.222l-0.001-0.004c-0.224-0.683-0.296-1.215-0.192-1.422 0.059-0.119 0.126-0.186 0.194-0.194 0.074-0.010 0.137 0.054 0.148 0.066 0.031 0.506 0.081 0.878 0.088 0.921v0.004s0 0 0 0.002c0.152 0.516 0.322 0.954 0.523 1.374l-0.023-0.054c-0.137 0.074-0.24 0.101-0.297 0.074zM14.538 17.029c-0.545 0.364-1.185 0.359-1.608 0.356h-0.102c-0.391 0-0.988-0.198-0.994-0.2h-0.007c-0.743-0.141-1.11-0.741-1.465-1.321-0.040-0.064-0.078-0.128-0.118-0.191-0.338-0.541-0.594-1.35-0.663-1.58 0.013-0.004 0.025-0.010 0.035-0.016l-0.001 0c0.292-0.181 0.456-1.713 0.474-1.889 0-0.011 0.096-1.078 0.649-1.484 0.198-0.145 0.435-0.188 0.704-0.128 1.248 0.283 2.593 0.043 2.607 0.040 0.008 0 0.791-0.152 1.291 0.271 0.204 0.173 0.357 0.749 0.442 1.667 0.064 0.693 0.065 1.341 0.065 1.364-0.014 0.348-0.049 1.036-0.081 1.16-0.035 0.143-0.647 1.56-1.23 1.948zM16.741 14.141c-0.032 0.075-0.061 0.148-0.090 0.22-0.156 0.387-0.291 0.722-0.545 0.976-0.048 0.047-0.187 0.105-0.276 0.085-0.031-0.005-0.056-0.027-0.065-0.056l-0-0.001c0.033-0.070 0.068-0.157 0.098-0.246l0.005-0.017c0.037-0.148 0.073-0.949 0.081-1.141 0.105-0.028 0.351-0.158 0.467-0.755 0.010-0.003 0.018-0.008 0.024-0.015l0-0c0.002-0.002 0.055-0.063 0.217-0.031 0.049 0.018 0.087 0.055 0.106 0.101l0 0.001c0.095 0.18 0.118 0.54-0.023 0.878z"></path>
<path d="M12.184 13.392c0.006-0.009 0.010-0.021 0.010-0.033 0-0.015-0.005-0.029-0.015-0.040l0 0c-0.003-0.005-0.009-0.018-0.014-0.029-0.055-0.125-0.224-0.505-0.918-0.432-0.506 0.053-0.719 0.495-0.727 0.514-0.003 0.006-0.005 0.014-0.005 0.022 0 0.023 0.015 0.042 0.035 0.048l0 0c0.264 0.088 0.568 0.141 0.884 0.145l0.002 0c0.452 0 0.71-0.133 0.747-0.195zM11.091 13.461c-0.173-0.025-0.325-0.059-0.472-0.103l0.023 0.006c0.107-0.172 0.267-0.303 0.457-0.37l0.006-0.002c-0.072 0.056-0.119 0.143-0.121 0.24v0c0.002 0.091 0.043 0.173 0.107 0.228l0 0zM11.64 13.475c0.073-0.057 0.12-0.144 0.121-0.242v-0c-0.003-0.112-0.064-0.21-0.153-0.265l-0.001-0.001c0.329 0.061 0.423 0.272 0.465 0.364 0.003 0.007 0.006 0.014 0.009 0.020-0.047 0.035-0.196 0.099-0.44 0.124z"></path>
<path d="M14.242 12.859c-0.302 0-0.522 0.073-0.654 0.216-0.077 0.082-0.124 0.192-0.124 0.313 0 0.004 0 0.007 0 0.011v-0.001c0.002 0.021 0.016 0.038 0.035 0.044l0 0c0.236 0.080 0.507 0.127 0.789 0.129h0.001c0.431 0 0.687-0.124 0.703-0.132s0.026-0.023 0.028-0.040l0-0c0-0.003 0-0.007 0-0.010 0-0.121-0.047-0.231-0.124-0.313l0 0c-0.132-0.144-0.351-0.217-0.654-0.217zM13.844 13.424c-0.112-0.021-0.206-0.045-0.297-0.074l0.019 0.005c0.008-0.084 0.044-0.159 0.098-0.216l-0 0c0.055-0.056 0.123-0.099 0.198-0.125l0.004-0.001c-0.057 0.055-0.094 0.132-0.095 0.217v0c0 0.075 0.028 0.143 0.073 0.195l-0-0zM14.444 13.461c0.065-0.056 0.106-0.138 0.108-0.229v-0c-0.003-0.112-0.063-0.209-0.152-0.264l-0.001-0.001c0.191 0.020 0.333 0.078 0.423 0.174 0.055 0.058 0.091 0.134 0.098 0.218l0 0.001c-0.14 0.055-0.302 0.091-0.47 0.102l-0.005 0z"></path>
<path d="M12.135 14.869c0.088 0.205 0.238 0.224 0.319 0.217 0.012-0.001 0.025-0.002 0.039-0.002 0.060 0 0.117 0.011 0.17 0.031l-0.003-0.001c0.055 0.018 0.119 0.029 0.186 0.029 0.008 0 0.016-0 0.024-0l-0.001 0c0.039-0.005 0.074-0.017 0.106-0.036l-0.001 0.001c0.040-0.022 0.086-0.038 0.136-0.046l0.002-0c0.033 0.001 0.064 0.004 0.094 0.009l-0.004-0.001c0.119 0.016 0.283 0.038 0.36-0.118 0.155-0.309-0.106-0.505-0.217-0.588-0.144-0.108-0.222-0.372-0.222-0.566 0-0.028-0.023-0.050-0.050-0.050s-0.050 0.023-0.050 0.050v0c0 0.223 0.090 0.517 0.263 0.646 0.158 0.118 0.29 0.257 0.187 0.462-0.042 0.085-0.129 0.081-0.255 0.063-0.030-0.005-0.066-0.009-0.102-0.010l-0.001-0c-0.067 0.007-0.128 0.027-0.183 0.057l0.003-0.001c-0.017 0.009-0.037 0.017-0.059 0.024l-0.004 0.001c-0.006 0-0.014 0-0.021 0-0.055 0-0.108-0.008-0.157-0.024l0.004 0.001c-0.060-0.022-0.129-0.035-0.201-0.035-0.017 0-0.033 0.001-0.049 0.002l0.002-0q-0.145 0.012-0.218-0.156c-0.078-0.181 0.084-0.329 0.242-0.452 0.026-0.019 0.049-0.039 0.071-0.059l-0 0c0.089-0.088 0.096-0.421 0.096-0.52 0-0.028-0.023-0.050-0.050-0.050s-0.050 0.023-0.050 0.050v0c0 0.184-0.025 0.409-0.066 0.449-0.013 0.012-0.035 0.030-0.061 0.050-0.136 0.105-0.388 0.302-0.273 0.571z"></path>
<path d="M13.799 15.976c-0.016-0.047-0.045-0.087-0.083-0.115l-0.001-0c-0.224-0.172-0.813-0.103-0.889-0.093-0.738-0.1-0.92 0.077-0.965 0.164-0.011 0.008-0.019 0.019-0.023 0.032l-0 0c-0.001 0.005-0.002 0.010-0.002 0.016 0 0.024 0.013 0.044 0.033 0.054l0 0c0.207 0.36 0.362 0.401 0.994 0.441 0.030 0 0.059 0.003 0.086 0.003 0.518 0 0.764-0.303 0.831-0.404 0.021-0.010 0.036-0.031 0.036-0.055 0-0.004-0-0.009-0.001-0.013l0 0c-0.003-0.012-0.009-0.022-0.017-0.030v0zM12.872 16.374c-0.566-0.035-0.71-0.073-0.862-0.306 0.279 0.060 0.599 0.094 0.928 0.094 0.001 0 0.001 0 0.002 0h-0c0.002 0 0.004 0 0.005 0 0.242 0 0.479-0.021 0.709-0.060l-0.025 0.003c-0.114 0.121-0.35 0.295-0.758 0.268zM11.987 15.939c0.072-0.061 0.276-0.147 0.834-0.070h0.014c0.171-0.023 0.653-0.056 0.819 0.072 0.012 0.009 0.022 0.020 0.031 0.031l0 0c-0.765 0.145-1.475 0.015-1.699-0.034z"></path>
</symbol>
<symbol id="icon-isle-of-dogs-icon_Boss" viewBox="0 0 25 32">
<title>isle-of-dogs-icon_Boss</title>
<path d="M10.64 12.065c-0.060-0.054-0.139-0.087-0.227-0.087-0 0-0.001 0-0.001 0h0c-0.013 0-0.026 0-0.040 0-0.158 0.020-0.282 0.145-0.299 0.303l-0 0.002c-0.002 0.012-0.002 0.026-0.002 0.040 0 0.087 0.033 0.167 0.087 0.227l-0-0c0.063 0.069 0.153 0.113 0.253 0.113 0.189 0 0.341-0.153 0.341-0.341 0-0.1-0.043-0.19-0.112-0.253l-0-0z"></path>
<path d="M14.996 12.515c0.054-0.060 0.087-0.139 0.087-0.227 0-0.014-0.001-0.028-0.003-0.042l0 0.002c-0.019-0.158-0.142-0.282-0.299-0.3l-0.002-0c-0.006-0-0.013-0.001-0.020-0.001s-0.014 0-0.021 0.001l0.001-0c-0.001 0-0.001 0-0.002 0-0.087 0-0.166 0.033-0.226 0.087l0-0c-0.070 0.063-0.114 0.154-0.114 0.255 0 0.189 0.153 0.341 0.341 0.341 0.101 0 0.192-0.044 0.255-0.114l0-0z"></path>
<path d="M13.866 14.045c-0.26-0.226-0.696-0.25-1.296-0.070-0.002 0.001-0.004 0.001-0.006 0.001s-0.004-0-0.006-0.001l0 0c-0.127-0.069-0.702-0.202-1.107 0-0.232 0.116-0.37 0.318-0.41 0.598-0.022 0.153-0.002 0.278 0.061 0.38 0.259 0.417 0.903 1.412 1.301 1.623 0.038 0.020 0.083 0.032 0.131 0.032 0.001 0 0.001 0 0.002 0h-0c0.468 0 1.194-1.002 1.505-1.466 0.034-0.049 0.057-0.107 0.068-0.17l0-0.002c0.029-0.189 0.063-0.658-0.244-0.925zM13.99 14.952c-0.008 0.047-0.025 0.088-0.049 0.124l0.001-0.001c-0.452 0.675-0.996 1.307-1.323 1.401 0.011-0.233 0.062-1.396 0-1.815-0.005-0.030-0.030-0.052-0.061-0.052-0.034 0-0.061 0.027-0.061 0.061 0 0.003 0 0.006 0.001 0.009l-0-0c0.061 0.41 0.007 1.61-0.002 1.803-0.014-0.003-0.026-0.008-0.037-0.014l0.001 0c-0.382-0.202-1.058-1.261-1.255-1.58-0.048-0.077-0.062-0.175-0.044-0.299 0.034-0.238 0.15-0.409 0.345-0.506 0.13-0.061 0.282-0.097 0.443-0.097 0.010 0 0.020 0 0.030 0l-0.001-0c0.24 0 0.457 0.057 0.523 0.093v0c0.019 0.011 0.041 0.017 0.065 0.017 0.014 0 0.027-0.002 0.040-0.006l-0.001 0c0.558-0.167 0.955-0.152 1.182 0.046 0.263 0.227 0.232 0.646 0.205 0.816z"></path>
<path d="M12.008 14.695c-0.029-0.034-0.066-0.061-0.109-0.077l-0.002-0.001c-0.078-0.028-0.185-0.022-0.232 0.060-0.076 0.13 0.085 0.347 0.234 0.507l0.008 0.009c0.019 0.030 0.045 0.089 0.026 0.121-0.012 0.022-0.043 0.033-0.092 0.033-0.007 0-0.014 0-0.022 0-0.062 0-0.121-0.007-0.179-0.021l0.005 0.001c-0.003-0.001-0.007-0.001-0.010-0.001-0.014 0-0.026 0.007-0.034 0.017l-0 0c-0.005 0.007-0.009 0.016-0.009 0.025 0 0.008 0.002 0.016 0.007 0.022l-0-0c0.054 0.097 0.154 0.163 0.27 0.168l0.001 0h0.025c0.217-0.017 0.301-0.212 0.31-0.234 0.001-0.002 0.002-0.005 0.002-0.008l0-0c0.003-0.026 0.005-0.056 0.005-0.087 0-0.207-0.079-0.395-0.207-0.537l0.001 0.001z"></path>
<path d="M13.525 15.415c-0.052 0.012-0.112 0.019-0.174 0.019-0.008 0-0.015-0-0.023-0l0.001 0c-0.049 0-0.081-0.011-0.093-0.033-0.019-0.034 0.008-0.093 0.027-0.121l0.008-0.009c0.149-0.16 0.31-0.377 0.234-0.507-0.048-0.081-0.154-0.088-0.232-0.060-0.044 0.017-0.082 0.043-0.111 0.077l-0 0c-0.127 0.141-0.205 0.329-0.205 0.535 0 0.031 0.002 0.062 0.005 0.092l-0-0.004c0.001 0.003 0.002 0.006 0.003 0.008l-0-0c0.009 0.022 0.093 0.217 0.31 0.234h0.025c0.117-0.005 0.217-0.070 0.27-0.166l0.001-0.002c0.004-0.006 0.007-0.014 0.007-0.022 0-0.010-0.003-0.018-0.009-0.025l0 0c-0.007-0.011-0.020-0.018-0.033-0.018-0.004 0-0.008 0.001-0.011 0.002l0-0z"></path>
<path d="M16.768 15.951c-0.099-0.307-0.156-0.661-0.156-1.028 0-0.055 0.001-0.109 0.004-0.163l-0 0.008 0.031-0.019-0.025-0.037c0.024-0.292 0.067-0.559 0.129-0.818l-0.007 0.037c0.013-0.063 0.026-0.124 0.037-0.182 0.11-0.571-0.034-2.152-0.183-2.781-0.026-0.12-0.102-0.218-0.204-0.273l-0.002-0.001c0.015-0.032 0.053-0.092 0.097-0.164 0.038-0.061 0.086-0.139 0.144-0.236 0.258-0.432 0.232-0.908 0.165-1.23-0.038-0.175-0.099-0.33-0.182-0.47l0.004 0.007c-0.051-0.088-0.066-0.263-0.081-0.433-0.007-0.133-0.026-0.258-0.054-0.378l0.003 0.015c-0.089-0.318-0.428-1.365-1.038-1.473-0.67-0.118-1.697 0.344-2.368 1.639-0.153 0.295 0.059 0.835 0.15 1.065 0.002 0.005 0.004 0.009 0.006 0.014-0.152-0.010-0.329-0.016-0.508-0.016-0.247 0-0.491 0.011-0.733 0.032l0.031-0.002c0.098-0.198 0.274-0.637 0.081-0.941-0.253-0.399-1.585-1.585-2.192-1.478-0.701 0.124-0.918 1.349-0.927 1.401-0.033 0.193-0.136 0.351-0.314 0.485-0.13 0.098-0.223 0.24-0.258 0.403l-0.001 0.005c-0.078 0.369-0.148 1.053 0.25 1.489 0.189 0.207 0.246 0.345 0.246 0.387-0.108 0.063-0.187 0.165-0.22 0.285l-0.001 0.003c-0.208 0.879-0.528 2.41-0.338 2.79 0.345 0.691 0.399 1.405 0.165 2.185-0.136 0.443-0.215 0.953-0.215 1.481 0 0.044 0.001 0.089 0.002 0.133l-0-0.007c0.019 0.558 0.15 0.958 0.37 1.127 0.466 0.358 3.63 0.566 3.96 0.585v0.002c0.815-0.003 3.528-0.36 3.986-0.712 0.22-0.169 0.351-0.569 0.37-1.127 0.001-0.031 0.001-0.067 0.001-0.104 0-0.536-0.081-1.052-0.23-1.539l0.010 0.037zM13.184 8.023c0.74-1.428 1.788-1.657 2.239-1.576 0.555 0.098 0.883 1.172 0.943 1.387 0.023 0.099 0.040 0.215 0.047 0.334l0 0.006c0.017 0.191 0.033 0.372 0.097 0.485 0.073 0.123 0.13 0.266 0.163 0.418l0.002 0.010c0.063 0.301 0.088 0.745-0.15 1.143-0.058 0.097-0.105 0.174-0.143 0.235-0.107 0.173-0.135 0.219-0.118 0.273 0.009 0.027 0.030 0.047 0.056 0.057l0.001 0c0.080 0.039 0.139 0.112 0.156 0.2l0 0.002c0.147 0.62 0.289 2.173 0.182 2.73-0.011 0.058-0.023 0.118-0.037 0.181-0.042 0.176-0.080 0.398-0.106 0.624l-0.003 0.028c-0.591-0.817-1.186-1.298-1.729-1.573h0.022c0.407 0 0.739-0.316 0.739-0.705s-0.332-0.705-0.739-0.705-0.739 0.316-0.739 0.705c0.001 0.199 0.086 0.378 0.221 0.503l0 0c-0.212-0.069-0.456-0.115-0.71-0.127l-0.007-0-0.274-0.293c-0.209-0.223-0.196-0.47-0.183-0.709 0.003-0.055 0.006-0.111 0.006-0.166 0.005-0.117 0.022-0.228 0.049-0.335l-0.002 0.012c0.017-0.066 0.030-0.144 0.035-0.224l0-0.004c0-0.002 0-0.003 0-0.005 0-0.073-0.015-0.142-0.042-0.205l0.001 0.003c-0.047-0.112-0.074-0.242-0.074-0.378s0.027-0.266 0.076-0.385l-0.002 0.007c0.070-0.16 0.174-0.294 0.303-0.398l0.002-0.002c0.065-0.047 0.107-0.121 0.109-0.205v-0c0-0.002 0-0.004 0-0.006 0-0.081-0.038-0.154-0.097-0.201l-0.001-0-0.105-0.081c-0.006-0.021-0.017-0.049-0.034-0.091-0.076-0.198-0.282-0.722-0.154-0.967zM14.187 12.279c0-0.323 0.277-0.584 0.618-0.584s0.618 0.262 0.618 0.584-0.277 0.584-0.618 0.584-0.618-0.262-0.618-0.584zM13.293 9.172l0.108 0.085c0.032 0.025 0.052 0.063 0.052 0.106 0 0.001 0 0.002-0 0.003v-0c-0.001 0.045-0.024 0.085-0.058 0.11l-0 0c-0.15 0.119-0.268 0.272-0.344 0.447l-0.003 0.008c-0.052 0.126-0.083 0.271-0.083 0.424s0.030 0.299 0.086 0.432l-0.003-0.007c0.020 0.045 0.031 0.098 0.031 0.153 0 0.002 0 0.004-0 0.006v-0c-0.006 0.076-0.018 0.146-0.035 0.214l0.002-0.009c-0.026 0.102-0.043 0.221-0.048 0.342l-0 0.004c0 0.051-0.003 0.104-0.006 0.16-0.013 0.252-0.028 0.537 0.216 0.798l0.194 0.207c-0.255 0.003-0.499 0.044-0.729 0.119l0.017-0.005c-0.047 0.016-0.102 0.026-0.159 0.026-0.030 0-0.060-0.003-0.089-0.008l0.003 0c-0.202-0.036-0.434-0.057-0.67-0.057-0.081 0-0.161 0.002-0.24 0.007l0.011-0.001c-0-0.004-0.001-0.007-0.002-0.010l0 0c0-0.002-0.083-0.27 0.246-0.876 0.341-0.627 0.207-0.875 0.174-0.922-0.415-0.789-0.116-1.525-0.008-1.74 0.002 0 0.004 0 0.006 0s0.004-0 0.006-0l-0 0c0.228-0.023 0.492-0.036 0.759-0.036 0.199 0 0.397 0.007 0.593 0.022l-0.026-0.002zM8.454 13.836c-0.124-0.249 0.006-1.261 0.348-2.707 0.028-0.096 0.092-0.174 0.175-0.219l0.002-0.001c0.025-0.016 0.042-0.043 0.045-0.073l0-0c0.014-0.103-0.089-0.286-0.276-0.491-0.362-0.396-0.293-1.036-0.221-1.383 0.030-0.138 0.106-0.254 0.212-0.334l0.001-0.001c0.204-0.154 0.323-0.337 0.36-0.562 0.071-0.412 0.335-1.215 0.829-1.302 0.019-0.004 0.041-0.006 0.063-0.006 0.001 0 0.003 0 0.004 0h-0c0.573 0 1.782 1.082 2.002 1.429 0.181 0.285-0.040 0.743-0.116 0.879-0.021 0.034-0.546 0.941-0.026 1.926l0.007 0.010c0 0.002 0.135 0.208-0.182 0.793-0.311 0.572-0.278 0.873-0.259 0.953-0.226 0.022-0.432 0.061-0.63 0.118l0.024-0.006c0.164-0.127 0.269-0.324 0.271-0.545v-0c0-0.389-0.332-0.705-0.739-0.705s-0.739 0.316-0.739 0.705 0.331 0.705 0.739 0.705h0.024c-0.32 0.142-0.596 0.315-0.844 0.521l0.006-0.005c-0.328 0.275-0.605 0.597-0.825 0.957l-0.010 0.017c-0.062-0.256-0.146-0.48-0.255-0.69l0.008 0.017zM10.35 12.896c-0.341 0-0.618-0.262-0.618-0.584s0.277-0.584 0.618-0.584 0.618 0.262 0.618 0.584-0.277 0.584-0.618 0.584zM16.539 18.589c-0.425 0.327-3.058 0.674-3.879 0.687v0c-0.597-0.026-3.521-0.257-3.919-0.562-0.416-0.32-0.404-1.638-0.114-2.603 0.15-0.502 0.186-0.978 0.106-1.438l0.013 0.006c0.229-0.411 0.518-0.759 0.861-1.046l0.006-0.005c0.543-0.454 1.472-0.949 2.812-0.724 0.032 0.006 0.068 0.009 0.106 0.009 0.071 0 0.139-0.011 0.202-0.033l-0.005 0.001c0.476-0.155 2.141-0.478 3.769 1.865-0.003 0.053-0.004 0.114-0.004 0.177 0 0.379 0.058 0.745 0.166 1.088l-0.007-0.026c0.29 0.964 0.302 2.282-0.114 2.602z"></path>
<path d="M9.080 9.843l0.054-0.045c0.008-0.007 0.865-0.699 2.125-0.462l0.033 0.006 0.023-0.024c0.086-0.104 0.138-0.239 0.138-0.385 0-0.046-0.005-0.091-0.015-0.135l0.001 0.004c-0.086-0.447-0.593-0.889-1.505-1.311l-0.044-0.020-0.030 0.040c-0.021 0.027-0.504 0.667-0.456 1.070 0.015 0.13-0.087 0.255-0.195 0.388-0.168 0.205-0.377 0.461-0.164 0.815zM9.302 9.044c0.121-0.146 0.242-0.298 0.221-0.479-0.036-0.302 0.301-0.8 0.404-0.943 1.050 0.495 1.337 0.924 1.392 1.2 0.008 0.033 0.012 0.070 0.012 0.109 0 0.104-0.032 0.201-0.087 0.281l0.001-0.002c-0.156-0.030-0.336-0.048-0.52-0.048-0.601 0-1.159 0.186-1.619 0.503l0.010-0.006c-0.114-0.249 0.031-0.427 0.185-0.616z"></path>
<path d="M13.846 9.123c0.012 0 1.198-0.036 2.101 0.721l0.017 0.014h0.022c0.057-0.004 0.107-0.034 0.138-0.077l0-0.001c0.091-0.121 0.090-0.351-0.004-0.689-0.052-0.186-0.072-0.327-0.060-0.431 0.003-0.027 0.007-0.054 0.011-0.081 0.040-0.269 0.089-0.606-0.659-1.247l-0.019-0.019-0.027 0.004c-0.016 0-1.584 0.218-1.584 1.745v0.063zM15.356 7.442c0.676 0.587 0.634 0.87 0.597 1.12-0.004 0.029-0.008 0.057-0.012 0.085-0.013 0.121 0.006 0.273 0.063 0.477 0.107 0.384 0.063 0.528 0.027 0.579-0.008 0.012-0.018 0.021-0.029 0.028l-0 0c-0.825-0.675-1.834-0.727-2.097-0.73 0.038-1.277 1.25-1.526 1.451-1.559z"></path>
</symbol>
<symbol id="icon-isle-of-dogs-icon_Chief" viewBox="0 0 25 32">
<title>isle-of-dogs-icon_Chief</title>
<path d="M16.736 7.96c-0.353-0.706-0.975-1.24-1.303-1.12-0.118 0.043-0.238 0.183-0.136 0.606 0.108 0.447-0.034 0.985-0.424 1.598-0.312 0.493-0.79 1.031-1.345 1.517-0.293 0.257-0.756 0.768-0.563 1.313 0.003 0.009 0.005 0.020 0.005 0.031 0 0.020-0.006 0.038-0.017 0.052l0-0c-0.016 0.022-0.041 0.036-0.070 0.036-0 0-0.001 0-0.001 0h0l-0.695-0.004c-0 0-0 0-0.001 0-0.019 0-0.036-0.010-0.045-0.025l-0-0c-0.005-0.008-0.008-0.018-0.008-0.028 0-0.008 0.002-0.016 0.005-0.023l-0 0c0.162-0.34 0.488-1.233 0.070-2.186-0.099-0.226-0.181-0.423-0.254-0.596-0.101-0.242-0.183-0.438-0.261-0.592-0.002-0.013-0.006-0.024-0.011-0.034l0 0.001-0.005 0.003c-0.227-0.434-0.434-0.529-1.017-0.428-0.283 0.049-0.652 0.047-1.044 0.046-0.907-0.003-1.935-0.007-2.2 0.641-0.213 0.521-0.175 0.922-0.133 1.346 0.046 0.48 0.094 0.975-0.205 1.723-0.383 0.957 0.262 1.533 0.78 1.996 0.132 0.118 0.257 0.23 0.364 0.343 0.058 0.064 0.094 0.15 0.094 0.244 0 0.035-0.005 0.068-0.014 0.1l0.001-0.003c-0.273 0.996-0.048 1.63 0.11 1.919 0.035 0.061 0.055 0.134 0.055 0.212 0 0.043-0.006 0.085-0.018 0.124l0.001-0.003c-0.111 0.381-0.266 1.184-0.065 2.283 0.276 1.501 0.6 2.885 1.522 3.32 1.143 0.538 2.075 0.716 2.826 0.716 1.030 0 1.72-0.336 2.143-0.543 0.064-0.031 0.121-0.059 0.175-0.084 0.24-0.116 0.447-0.249 0.636-0.404l-0.006 0.005c0.684-0.579 0.787-1.233 0.944-2.222 0.036-0.23 0.074-0.467 0.121-0.732 0.202-1.105 0.044-1.936-0.069-2.333-0.011-0.037-0.018-0.079-0.018-0.124 0-0.075 0.019-0.146 0.053-0.208l-0.001 0.002c0.396-0.724 0.255-1.497 0.135-1.894-0.007-0.023-0.012-0.050-0.012-0.077 0-0.087 0.043-0.164 0.108-0.211l0.001-0.001c0.371-0.264 0.558-0.642 0.869-1.757 0.372-1.328-0.518-3.417-1.082-4.544zM9.423 8.247h0.193c0.397 0 0.773 0.003 1.065-0.048 0.516-0.089 0.687-0.034 0.897 0.38 0.004 0.051-0.016 0.219-0.258 0.716-0.471 0.97-1.273 2.172-1.481 2.299-0.101-0.485-1.965-2.469-2.295-2.817 0.241-0.495 1.082-0.53 1.88-0.53zM17.703 12.471c-0.302 1.083-0.479 1.446-0.823 1.691-0.097 0.070-0.16 0.183-0.16 0.311 0 0.040 0.006 0.079 0.018 0.116l-0.001-0.003c0.114 0.378 0.249 1.116-0.126 1.801-0.043 0.077-0.068 0.169-0.068 0.266 0 0.055 0.008 0.109 0.023 0.159l-0.001-0.004c0.11 0.387 0.265 1.197 0.066 2.278-0.049 0.266-0.088 0.515-0.121 0.735-0.158 0.997-0.253 1.598-0.903 2.148-0.176 0.144-0.375 0.271-0.588 0.374l-0.018 0.008c-0.054 0.025-0.113 0.053-0.178 0.085-0.717 0.349-2.208 1.076-4.865-0.175-0.871-0.41-1.185-1.762-1.455-3.232-0.197-1.074-0.046-1.857 0.062-2.227 0.014-0.046 0.022-0.1 0.022-0.155 0-0.099-0.026-0.193-0.071-0.273l0.001 0.003c-0.362-0.66-0.19-1.499-0.099-1.829 0.011-0.038 0.017-0.082 0.017-0.128 0-0.126-0.048-0.242-0.128-0.328l0 0c-0.108-0.117-0.235-0.23-0.37-0.351-0.515-0.46-1.099-0.982-0.748-1.859 0.31-0.775 0.258-1.308 0.213-1.778-0.037-0.384-0.072-0.748 0.091-1.2 0.664 0.703 2.182 2.376 2.227 2.726 0.001 0.044 0.029 0.081 0.069 0.094l0.001 0c0.008 0.003 0.017 0.004 0.027 0.004 0 0 0.001 0 0.001 0h-0c0.056 0 0.133-0.049 0.283-0.227 0.409-0.489 1.381-2.063 1.565-2.732 0.052 0.116 0.109 0.253 0.176 0.412 0.073 0.175 0.155 0.372 0.255 0.598 0.398 0.907 0.084 1.761-0.069 2.086-0.010 0.022-0.016 0.047-0.016 0.074 0 0.097 0.078 0.175 0.174 0.175l0.695 0.004c0.001 0 0.001 0 0.002 0 0.069 0 0.13-0.034 0.168-0.086l0-0.001c0.024-0.034 0.039-0.077 0.039-0.123 0-0.026-0.005-0.050-0.013-0.073l0 0.001c-0.088-0.251-0.069-0.659 0.528-1.181 0.501-0.439 2.114-1.969 1.807-3.235-0.063-0.258-0.040-0.427 0.059-0.464 0.212-0.078 0.79 0.333 1.153 1.060 1.295 2.585 1.231 3.901 1.075 4.453z"></path>
<path d="M11.152 14.898c0-0.335-0.271-0.606-0.606-0.606s-0.606 0.271-0.606 0.606c0 0.335 0.271 0.606 0.606 0.606v0c0.335 0 0.606-0.271 0.606-0.606v0z"></path>
<path d="M15.081 15.254c0.096-0.107 0.154-0.249 0.154-0.404 0-0.335-0.271-0.606-0.606-0.606s-0.606 0.271-0.606 0.606c0 0.335 0.271 0.606 0.606 0.606 0 0 0 0 0 0h-0c0.179-0.001 0.34-0.078 0.451-0.201l0-0.001z"></path>
<path d="M15.444 16.733c-0.014-0.037-0.028-0.074-0.040-0.111-0.109-0.299-0.23-0.628-0.643-0.9h0.017c0.002 0 0.003 0 0.005 0 0.1 0 0.198-0.011 0.292-0.031l-0.009 0.002c0.152-0.027 0.404-0.156 0.529-0.377 0.103-0.184 0.103-0.404 0-0.632-0.004-0.008-0.007-0.020-0.013-0.035-0.057-0.169-0.231-0.682-1.124-0.636-0.368 0.019-0.5 0.247-0.571 0.369-0.011 0.019-0.021 0.036-0.030 0.050-0.103 0.148-0.153 0.429-0.048 0.678 0.048 0.116 0.111 0.215 0.189 0.301l-0.001-0.001c-0.095-0.019-0.205-0.031-0.317-0.031-0.315 0-0.609 0.087-0.86 0.239l0.007-0.004c-0.148 0.053-0.228 0.074-0.338 0.008-0.247-0.153-0.546-0.243-0.866-0.243-0.15 0-0.296 0.020-0.434 0.057l0.012-0.003c0.068-0.080 0.124-0.171 0.166-0.271l0.003-0.007c0.105-0.249 0.055-0.53-0.048-0.679-0.009-0.013-0.019-0.030-0.030-0.049-0.071-0.121-0.202-0.351-0.571-0.37-0.893-0.046-1.067 0.467-1.124 0.636-0.005 0.015-0.009 0.027-0.013 0.035-0.103 0.23-0.103 0.449 0 0.633 0.124 0.221 0.377 0.35 0.529 0.377 0.084 0.019 0.181 0.030 0.28 0.030 0.002 0 0.005 0 0.007-0h-0c0.026 0 0.053 0 0.081-0.002-0.364 0.263-0.477 0.573-0.58 0.856-0.014 0.038-0.027 0.075-0.040 0.111-0.046 0.119-0.088 0.262-0.118 0.41l-0.003 0.018c-0.192 1.121-0.288 4.146 0.277 4.73 0.703 0.727 1.757 0.834 2.321 0.834 0.15 0 0.265-0.008 0.33-0.013 0.067 0.005 0.171 0.011 0.303 0.011 0.563 0 1.616-0.108 2.32-0.834 0.566-0.584 0.469-3.609 0.277-4.73-0.033-0.164-0.076-0.307-0.129-0.444l0.006 0.018zM13.918 15.063c-0.088-0.209-0.049-0.441 0.036-0.562 0.012-0.017 0.023-0.036 0.036-0.058 0.068-0.117 0.17-0.294 0.472-0.309 0.036 0 0.071-0.003 0.105-0.003 0.71 0 0.846 0.401 0.899 0.557 0.006 0.019 0.012 0.035 0.017 0.046 0.088 0.196 0.090 0.373 0.005 0.525-0.101 0.161-0.263 0.277-0.452 0.316l-0.005 0.001c-0.077 0.017-0.165 0.026-0.256 0.026-0.066 0-0.13-0.005-0.193-0.015l0.007 0.001c-0.052-0.008-0.097-0.019-0.141-0.032l0.007 0.002c-0.035-0.015-0.070-0.030-0.107-0.045l-0.050-0.019c-0.173-0.095-0.306-0.245-0.377-0.425l-0.002-0.006zM12.751 17.022v-0.003c0.111 0 0.917 0.020 1.148 0.425 0.253 0.442 0.349 0.831 0.263 1.066-0.081 0.22-0.246 0.504-0.586 0.61l-0.129 0.040c-0.239 0.073-0.289 0.088-0.515 0.26-0.136 0.104-0.177 0.105-0.179 0.105 0.008 0.001 0.016 0.005 0.021 0.011l0 0c0.004 0.004 0.007 0.009 0.008 0.015l0 0h-0.047c0.001-0.014 0.011-0.025 0.025-0.027l0-0c-0.002 0-0.040 0-0.172-0.107-0.21-0.172-0.273-0.19-0.48-0.251-0.046-0.014-0.1-0.029-0.165-0.050-0.34-0.106-0.506-0.391-0.586-0.611-0.085-0.235 0.011-0.623 0.264-1.066 0.246-0.434 1.121-0.419 1.13-0.419zM10.144 15.624v0c-0.194-0.040-0.355-0.157-0.454-0.316l-0.002-0.003c-0.084-0.151-0.081-0.327 0.005-0.525 0.004-0.011 0.010-0.026 0.017-0.046 0.055-0.162 0.202-0.595 1.004-0.554 0.302 0.015 0.404 0.192 0.472 0.309 0.013 0.022 0.024 0.040 0.036 0.058 0.084 0.121 0.123 0.354 0.036 0.563-0.109 0.281-0.36 0.485-0.663 0.525l-0.004 0c-0.057 0.009-0.123 0.014-0.19 0.014-0.090 0-0.179-0.009-0.264-0.028l0.008 0.001zM15.588 19.71c-0.024 1.118-0.162 1.863-0.388 2.096-0.485 0.503-1.167 0.687-1.652 0.756-0.177 0.025-0.382 0.040-0.591 0.040-0.088 0-0.176-0.003-0.263-0.008l0.012 0.001v-0.007l-0.040 0.004c-0.044-0.003-0.068-0.006-0.069-0.006v0.011c-0.075 0.005-0.163 0.007-0.252 0.007-0.207 0-0.41-0.014-0.609-0.042l0.023 0.003c-0.485-0.066-1.167-0.251-1.657-0.756-0.531-0.547-0.429-3.554-0.244-4.625 0.031-0.156 0.071-0.292 0.121-0.422l-0.006 0.018c0.015-0.037 0.028-0.075 0.042-0.113 0.137-0.374 0.278-0.76 0.985-1.037 0.627-0.246 1.122-0.081 1.427 0.099 0.040 0.025 0.087 0.043 0.138 0.053l0.002 0 0.029 1.125c-0.283 0.017-0.864 0.098-1.079 0.474-0.271 0.474-0.37 0.899-0.272 1.167 0.089 0.246 0.277 0.566 0.664 0.687 0.066 0.021 0.121 0.037 0.167 0.050 0.202 0.060 0.246 0.072 0.438 0.229 0.055 0.049 0.118 0.090 0.187 0.119l0.005 0.002h0.002c0.013 0.007 0.029 0.012 0.047 0.012 0 0 0.001 0 0.001 0h-0c0.057 0 0.135-0.040 0.252-0.13 0.209-0.16 0.245-0.171 0.477-0.242l0.13-0.040c0.387-0.121 0.575-0.439 0.664-0.685 0.098-0.268 0-0.694-0.272-1.167-0.283-0.494-1.228-0.485-1.268-0.485v0.003h-0.021l-0.031-1.118c0.074-0.014 0.138-0.034 0.2-0.059l-0.007 0.003c0.297-0.176 0.775-0.335 1.379-0.114 0.039 0.020 0.086 0.040 0.135 0.055l0.007 0.002c0.623 0.274 0.758 0.641 0.889 0.997 0.014 0.038 0.028 0.076 0.040 0.114 0.044 0.112 0.084 0.248 0.112 0.387l0.003 0.017c0.085 0.494 0.166 1.496 0.143 2.529z"></path>
<path d="M11.805 18.36c-0.001 0.001-0.002 0.003-0.004 0.004l-0.005 0.005c-0.046 0.049-0.129 0.044-0.162 0.040h-0.006c-0.046 0-0.117-0.002-0.129 0.059-0.001 0.004-0.001 0.008-0.001 0.013 0 0.018 0.007 0.034 0.018 0.046l-0-0c0.046 0.052 0.253 0.116 0.47 0.116 0.025 0 0.049 0 0.074-0.003 0.099-0.007 0.186-0.052 0.247-0.121l0-0 0.008-0.008c0.049-0.049 0.087-0.108 0.111-0.174l0.001-0.003c0.012-0.029 0.019-0.063 0.019-0.099 0-0.081-0.035-0.153-0.091-0.203l-0-0c-0.064-0.056-0.148-0.090-0.239-0.090-0.015 0-0.030 0.001-0.045 0.003l0.002-0c-0.098 0.008-0.182 0.060-0.232 0.136l-0.001 0.001c-0.029 0.046-0.047 0.102-0.047 0.161 0 0.025 0.003 0.050 0.009 0.074l-0-0.002c0.002 0.011 0.004 0.024 0.004 0.038 0 0.003-0 0.005-0 0.008v-0z"></path>
<path d="M13.147 18.532l0.008 0.008c0.062 0.069 0.149 0.114 0.246 0.121l0.001 0q0.037 0.002 0.074 0.002c0.217 0 0.424-0.064 0.47-0.116 0.011-0.012 0.018-0.028 0.018-0.046 0-0.005-0-0.009-0.001-0.013l0 0c-0.012-0.061-0.081-0.060-0.129-0.059h-0.006c-0.033 0.004-0.116 0.009-0.162-0.040l-0.005-0.005h-0.003c-0-0.003-0-0.007-0-0.011 0-0.013 0.002-0.026 0.005-0.038l-0 0.001c0.005-0.022 0.009-0.046 0.009-0.072 0-0.060-0.017-0.116-0.047-0.163l0.001 0.001c-0.052-0.077-0.136-0.129-0.232-0.137l-0.001-0c-0.013-0.002-0.028-0.003-0.043-0.003-0.092 0-0.176 0.034-0.24 0.090l0-0c-0.056 0.050-0.092 0.122-0.092 0.203 0 0.035 0.007 0.069 0.019 0.1l-0.001-0.002c0.025 0.069 0.063 0.128 0.111 0.177l-0-0z"></path>
</symbol>
<symbol id="icon-isle-of-dogs-icon_Duke" viewBox="0 0 25 32">
<title>isle-of-dogs-icon_Duke</title>
<path d="M19.124 16.984c0.154-1.010-0.146-1.833-0.491-2.777l-0.065-0.179c-0.364-0.995-0.773-1.844-0.831-1.964 0.099-1.785-0.215-3.030-0.934-3.699-0.615-0.574-1.293-0.494-1.322-0.49l-0.023 0.003-0.015 0.017c-2.149 2.438-1.899 3.469-1.723 3.777l-1.899 0.012c0.179-0.31 0.422-1.34-1.723-3.776l-0.015-0.017-0.023-0.003c-0.029-0.004-0.707-0.083-1.322 0.49-0.719 0.67-1.034 1.914-0.934 3.699-0.059 0.121-0.47 0.97-0.832 1.964-0.525 1.444-0.703 2.492-0.529 3.116 0.063 0.225 0.113 0.425 0.157 0.603 0.248 0.999 0.372 1.501 2.023 3.232 0.898 0.941 1.707 1.504 2.229 1.812 0.53 0.313 0.945 0.466 1.043 0.47l0.558 0.083c0.121 0.019 0.261 0.029 0.404 0.029h0c0.192-0 0.379-0.018 0.561-0.051l-0.019 0.003c0.11-0.019 0.223-0.036 0.333-0.049l0.474-0.057c0.053-0.003 0.675-0.171 0.998-0.373 0.704-0.44 1.161-1.050 1.794-1.893 0.14-0.186 0.283-0.379 0.444-0.587 0.196-0.255 0.361-0.462 0.506-0.646 0.739-0.929 0.852-1.072 1.149-2.596 0.010-0.050 0.018-0.099 0.025-0.149h0.003c-0.001-0.002-0.002-0.004-0.003-0.006l0 0zM7.919 12.117l0.007-0.014v-0.016c-0.1-1.754 0.202-2.971 0.893-3.617 0.298-0.287 0.705-0.463 1.152-0.463 0.019 0 0.037 0 0.056 0.001l-0.003-0c2.495 2.838 1.646 3.685 1.637 3.693l-0.121 0.107 2.453-0.015-0.112-0.104c-0.002-0.002-0.217-0.209-0.128-0.76 0.152-0.935 1.040-2.108 1.765-2.934 0.016-0.001 0.035-0.001 0.054-0.001 0.446 0 0.851 0.176 1.149 0.462l-0.001-0.001c0.684 0.636 0.994 1.889 0.897 3.619v0.016l0.007 0.014c0.004 0.009 0.447 0.904 0.833 1.967l0.065 0.179c0.314 0.858 0.59 1.613 0.511 2.499-0.342-0.73-1.020-1.091-1.441-1.315-0.066-0.035-0.124-0.066-0.173-0.094-0.202-0.116-0.298-0.381-0.409-0.687-0.212-0.584-0.475-1.31-1.591-1.645-0.815-0.244-1.509-0.202-2.065 0.121-0.275 0.163-0.5 0.383-0.666 0.644l-0.005 0.008c-0.177-0.261-0.408-0.472-0.679-0.62l-0.010-0.005c-0.577-0.312-1.293-0.343-2.126-0.093-1.181 0.354-1.395 1.22-1.566 1.915-0.112 0.454-0.202 0.812-0.534 0.871-0.71 0.127-1.109 0.611-1.264 0.845-0.046-1.609 1.399-4.545 1.415-4.577zM17.853 19.66c-0.145 0.183-0.31 0.39-0.507 0.646-0.162 0.208-0.305 0.401-0.444 0.587-0.625 0.833-1.077 1.435-1.761 1.863-0.308 0.192-0.889 0.347-0.945 0.355l-0.476 0.056c-0.113 0.013-0.227 0.030-0.34 0.050-0.154 0.030-0.331 0.047-0.512 0.047-0.14 0-0.278-0.010-0.413-0.030l0.015 0.002-0.040-0.006c-0.496-0.074-0.525-0.078-0.531-0.078v0c-0.13-0.006-1.535-0.515-3.187-2.244-1.629-1.706-1.743-2.167-1.993-3.176-0.044-0.178-0.094-0.38-0.158-0.606-0.021-0.074-0.038-0.163-0.047-0.254l-0.001-0.007 0.021 0.011c0.004-0.008 0.385-0.753 1.253-0.908 0.411-0.073 0.512-0.485 0.63-0.962 0.164-0.665 0.369-1.495 1.484-1.828 0.802-0.242 1.486-0.212 2.034 0.084 0.277 0.15 0.503 0.362 0.666 0.619l0.004 0.007 0.077 0.126 0.061-0.102c0.295-0.502 1.031-1.271 2.638-0.79 1.058 0.317 1.31 1.010 1.512 1.57 0.119 0.329 0.222 0.613 0.463 0.752 0.051 0.029 0.109 0.060 0.176 0.096 0.444 0.236 1.181 0.629 1.467 1.455-0.006 0.040-0.013 0.081-0.021 0.121-0.291 1.495-0.386 1.614-1.125 2.544z"></path>
<path d="M10.723 15.104c-0.074-0.067-0.173-0.108-0.282-0.108-0.233 0-0.422 0.189-0.422 0.422s0.189 0.422 0.422 0.422c0.233 0 0.422-0.189 0.422-0.422v0c-0-0.125-0.054-0.237-0.14-0.314l-0-0z"></path>
<path d="M11.163 15.023c-0.084-0.121-0.507-0.444-0.857-0.404-0.374 0.046-0.827 0.192-0.861 0.626-0.032 0.411 0.073 0.687 0.332 0.872 0.102 0.072 0.226 0.122 0.36 0.139l0.004 0 0.215 0.027h0.006c0.028-0.002 0.062-0.004 0.098-0.004 0.261-0.007 0.698-0.018 0.778-0.642 0.029-0.209 0.041-0.445-0.076-0.614zM11.122 15.623c-0.067 0.521-0.411 0.53-0.661 0.537-0.036 0-0.069 0.002-0.099 0.004l-0.202-0.025c-0.117-0.014-0.223-0.056-0.313-0.119l0.002 0.001c-0.151-0.107-0.319-0.291-0.283-0.764 0.022-0.283 0.276-0.457 0.755-0.516 0.015-0.002 0.032-0.003 0.050-0.003 0.001 0 0.002 0 0.003 0h-0c0.295 0 0.638 0.283 0.689 0.355 0.073 0.106 0.091 0.265 0.057 0.53z"></path>
<path d="M14.954 15.030c-0.014-0.002-0.031-0.003-0.048-0.003-0.233 0-0.422 0.189-0.422 0.422s0.189 0.422 0.422 0.422c0.233 0 0.422-0.189 0.422-0.422 0-0.017-0.001-0.033-0.003-0.050l0 0.002c-0.024-0.195-0.177-0.348-0.37-0.371l-0.002-0z"></path>
<path d="M15.042 14.654c-0.35-0.043-0.773 0.283-0.857 0.404-0.117 0.168-0.105 0.404-0.078 0.615 0.067 0.525 0.364 0.58 0.606 0.58 0.034 0 0.067 0 0.099 0 0.020-0.001 0.042-0.002 0.065-0.002s0.046 0.001 0.069 0.002l-0.003-0h0.008l0.317-0.056c0.15-0.019 0.306-0.117 0.385-0.174 0.208-0.147 0.288-0.256 0.251-0.74-0.035-0.438-0.488-0.584-0.861-0.63zM15.582 15.921c-0.057 0.040-0.202 0.136-0.332 0.152l-0.306 0.054c-0.040-0.003-0.088 0-0.137 0-0.242 0.008-0.517 0.017-0.58-0.472-0.034-0.265-0.017-0.424 0.057-0.53 0.051-0.074 0.394-0.355 0.69-0.355 0.019 0 0.037 0.001 0.055 0.003l-0.002-0c0.479 0.059 0.733 0.233 0.755 0.516 0.035 0.446-0.032 0.512-0.2 0.632z"></path>
<path d="M12.485 19.96l0.163 0.012c0.004 0.002 0.009 0.003 0.015 0.003l0 0h0.005c0.001 0 0.003 0 0.004 0s0.003-0 0.005-0h-0c0.033 0 0.060 0.003 0.083 0.003 0.003 0 0.006 0 0.010 0 0.074 0 0.143-0.022 0.201-0.059l-0.001 0.001 0.040-0.019 0.028-0.014c0.198-0.095 0.801-0.385 0.943-1.432 0.003-0.025 0.004-0.067 0.004-0.121 0-0.062 0-0.138 0.006-0.202v-0.011c0.009-0.1 0.026-0.286-0.126-0.45-0.186-0.2-0.572-0.295-1.147-0.286-0.003 0-0.007 0-0.011 0-0.044 0-0.087-0.003-0.129-0.010l0.005 0.001c-0.028-0.004-0.684-0.093-1.084 0.215-0.556 0.427 0.257 1.709 0.313 1.795 0.027 0.049 0.289 0.545 0.674 0.575zM11.571 17.685c0.21-0.162 0.525-0.206 0.768-0.206 0.002 0 0.004 0 0.007 0 0.077 0 0.154 0.005 0.228 0.015l-0.009-0.001c0.042 0.006 0.090 0.010 0.14 0.010 0.005 0 0.010-0 0.015-0h-0.001c0.542-0.009 0.897 0.072 1.059 0.247 0.115 0.124 0.102 0.27 0.094 0.356v0.012c-0.006 0.068-0.006 0.148-0.007 0.211 0 0.046 0 0.089-0.003 0.107-0.132 0.982-0.691 1.253-0.875 1.339l-0.030 0.014-0.040 0.020c-0.043 0.028-0.096 0.045-0.153 0.045-0.009 0-0.019-0-0.028-0.001l0.001 0c0.066-0.872 0.013-1.604-0.006-1.657-0.008-0.025-0.031-0.043-0.059-0.043-0.006 0-0.013 0.001-0.018 0.003l0-0c-0.025 0.007-0.043 0.030-0.043 0.057 0 0.007 0.001 0.013 0.003 0.019l-0-0c0.013 0.061 0.065 0.761 0 1.616l-0.119-0.009c-0.329-0.024-0.575-0.507-0.577-0.512l-0.003-0.006c-0.229-0.353-0.737-1.333-0.342-1.637z"></path>
<path d="M12.086 18.601c0.088-0.006 0.165-0.047 0.219-0.108l0-0 0.008-0.008c0.043-0.044 0.077-0.097 0.099-0.155l0.001-0.003c0.011-0.025 0.017-0.055 0.017-0.085 0-0.068-0.030-0.129-0.078-0.171l-0-0c-0.055-0.047-0.128-0.076-0.207-0.076-0.014 0-0.028 0.001-0.041 0.003l0.002-0c-0.083 0.006-0.155 0.051-0.199 0.115l-0.001 0.001c-0.025 0.039-0.040 0.086-0.040 0.137 0 0.023 0.003 0.046 0.009 0.067l-0-0.002c0.003 0.011 0.004 0.023 0.004 0.036s-0.002 0.025-0.005 0.037l0-0.001c-0.004 0.007-0.008 0.012-0.013 0.017l-0 0-0.004 0.004c-0.059 0.062-0.151 0.061-0.202 0.054v0c-0.059 0-0.081 0.004-0.083 0.022-0 0.001-0 0.003-0 0.004 0 0.006 0.003 0.012 0.007 0.016v0c0.031 0.035 0.217 0.101 0.434 0.101 0.025-0.001 0.049-0.002 0.074-0.004z"></path>
<path d="M13.026 18.545l0.008 0.008c0.053 0.061 0.129 0.101 0.215 0.107l0.001 0c0.025 0 0.049 0.002 0.073 0.002 0.215 0 0.399-0.065 0.429-0.099 0.004-0.004 0.006-0.008 0.006-0.014 0-0.001-0-0.002-0-0.002v0c-0.002-0.012-0.016-0.019-0.078-0.018v0c-0.051 0.006-0.145 0.008-0.205-0.056l-0.004-0.003c-0.006-0.005-0.011-0.012-0.014-0.019l-0-0c-0.003-0.011-0.005-0.024-0.005-0.037s0.002-0.026 0.005-0.038l-0 0.001c0.005-0.019 0.008-0.041 0.008-0.063 0-0.050-0.014-0.096-0.039-0.135l0.001 0.001c-0.043-0.065-0.114-0.108-0.195-0.114l-0.001-0c-0.012-0.002-0.025-0.002-0.039-0.002-0.078 0-0.149 0.028-0.204 0.075l0-0c-0.047 0.041-0.077 0.101-0.077 0.168 0 0.030 0.006 0.059 0.017 0.085l-0.001-0.001c0.023 0.061 0.057 0.113 0.099 0.156l-0-0z"></path>
<path d="M14.644 21.346c-0.010-0.008-0.023-0.013-0.038-0.013-0.019 0-0.036 0.009-0.048 0.023l-0 0c-0.199 0.252-0.749 0.252-1.202 0-0.188-0.105-0.697-0.108-0.886 0.027-0.176 0.133-0.399 0.214-0.64 0.214-0.217 0-0.418-0.065-0.587-0.176l0.004 0.002c-0.010-0.008-0.023-0.013-0.037-0.013-0.033 0-0.061 0.027-0.061 0.061 0 0.021 0.011 0.040 0.027 0.051l0 0c0.187 0.121 0.416 0.194 0.661 0.196h0.001c0.227-0.001 0.439-0.066 0.617-0.179l-0.005 0.003c0.149 0.115 0.339 0.185 0.544 0.185 0.191 0 0.369-0.060 0.514-0.162l-0.003 0.002 0.003-0.002c0.496 0.192 0.961 0.097 1.143-0.132 0.008-0.010 0.013-0.024 0.013-0.038 0-0.019-0.009-0.036-0.022-0.047l-0-0zM12.56 21.472c0.158-0.088 0.579-0.096 0.737-0.009 0.025 0.014 0.051 0.027 0.077 0.040-0.11 0.065-0.241 0.103-0.382 0.103-0.162 0-0.312-0.050-0.435-0.136l0.002 0.002z"></path>
</symbol>
<symbol id="icon-isle-of-dogs-icon_King" viewBox="0 0 25 32">
<title>isle-of-dogs-icon_King</title>
<path d="M12.077 15.307c0.053 0.013 0.114 0.021 0.177 0.021h0c0 0 0.001 0 0.001 0 0.146 0 0.282-0.045 0.394-0.123l-0.002 0.002c0.465-0.312 0.663-1.136 0.741-1.6 0.006-0.031 0.009-0.066 0.009-0.102 0-0.262-0.169-0.485-0.405-0.565l-0.004-0.001c-0.154-0.051-0.327-0.054-0.615-0.059-0.081 0-0.168-0.003-0.268-0.006v0c-0.033 0-0.798-0.009-0.982 0.32-0.116 0.206-0.137 0.839 0.094 1.36 0.177 0.404 0.476 0.664 0.86 0.752zM11.228 13.253c0.121-0.214 0.637-0.259 0.853-0.259h0.021c0.1 0.003 0.19 0.004 0.269 0.006 0.276 0.004 0.442 0.007 0.579 0.053 0.191 0.067 0.325 0.246 0.325 0.456 0 0.027-0.002 0.054-0.007 0.080l0-0.003c-0.059 0.358-0.245 1.223-0.687 1.52-0.081 0.057-0.18 0.093-0.288 0.101l-0.002 0c0.073-0.894 0.017-1.654 0-1.709-0.008-0.025-0.031-0.043-0.059-0.043-0.006 0-0.013 0.001-0.018 0.003l0-0c-0.025 0.007-0.043 0.030-0.043 0.057 0 0.006 0.001 0.013 0.003 0.018l-0-0c0.014 0.062 0.068 0.79-0.004 1.669-0.021-0.003-0.043-0.007-0.065-0.012-0.35-0.081-0.612-0.311-0.777-0.684-0.222-0.495-0.192-1.090-0.103-1.252z"></path>
<path d="M11.758 14.111c0 0 0 0 0.001 0 0.032 0 0.063-0.006 0.091-0.017l-0.002 0.001c0.053-0.014 0.093-0.056 0.106-0.108l0-0.001c0.002-0.014 0.003-0.031 0.003-0.047 0-0.095-0.035-0.182-0.093-0.249l0 0c-0.054-0.063-0.134-0.103-0.223-0.103-0.007 0-0.013 0-0.020 0.001l0.001-0c-0.157 0.010-0.293 0.092-0.377 0.213l-0.001 0.002c-0.002 0.003-0.003 0.007-0.003 0.011 0 0.002 0 0.005 0.001 0.007l-0-0c0.002 0.006 0.007 0.010 0.013 0.012l0 0c0.119 0.039 0.22 0.103 0.3 0.187l0 0c0.051 0.054 0.122 0.089 0.202 0.091h0z"></path>
<path d="M12.598 14.109c0.027 0.010 0.057 0.016 0.089 0.016 0 0 0 0 0 0h-0c0.080-0.001 0.151-0.035 0.202-0.089l0-0c0.081-0.085 0.183-0.15 0.297-0.188l0.005-0.001c0.006-0.002 0.010-0.007 0.012-0.012l0-0c0.001-0.003 0.002-0.005 0.002-0.009s-0.001-0.006-0.002-0.009l0 0c-0.085-0.123-0.221-0.205-0.376-0.214l-0.001-0c-0.006-0-0.012-0.001-0.019-0.001-0.089 0-0.169 0.040-0.223 0.102l-0 0c-0.058 0.066-0.093 0.153-0.093 0.248 0 0.017 0.001 0.033 0.003 0.049l-0-0.002c0.013 0.053 0.052 0.094 0.103 0.108l0.001 0z"></path>
<path d="M19.591 15.414l-0.034-0.048c-0.255-0.361-0.457-0.646-0.579-1.271-0.064-0.327-0.040-0.708-0.011-1.149 0.072-1.126 0.162-2.529-1.226-3.899-0.054-0.053-0.114-0.101-0.178-0.142l-0.004-0.003c-0.525-0.341-2.436-1.377-5.002-0.404-0.061 0.024-0.131 0.037-0.204 0.037-0.078 0-0.153-0.015-0.221-0.044l0.004 0.001-0.009-0.004c-0.348-0.14-1.074-0.431-1.985-0.5-1.131-0.085-2.165 0.202-3.071 0.856-0.768 0.554-1.212 1.158-1.356 1.845-0.129 0.606-0.017 1.2 0.093 1.774 0.107 0.566 0.208 1.099 0.081 1.613-0.069 0.273-0.295 0.469-0.514 0.655-0.208 0.178-0.424 0.364-0.508 0.615-0.371 1.113 0.778 2.404 1.139 2.773 0.023 0.024 0.056 0.039 0.092 0.039 0.071 0 0.128-0.058 0.128-0.128 0-0.014-0.002-0.028-0.007-0.041l0 0.001c-0.112-0.356-0.218-1.035 0.335-1.59 0.836-0.84 1.248-1.516 1.034-2.686-0.112-0.612 0.015-0.68 0.162-0.758 0.121-0.064 0.27-0.143 0.286-0.476 0.002-0.051 0.003-0.111 0.003-0.171 0-0.274-0.025-0.543-0.072-0.804l0.004 0.027c-0.073-0.478-0.114-0.744 0.373-1.125-0.154 0.547-0.433 1.799 0.068 2.277 0.329 0.314 0.242 0.754 0.1 1.484-0.086 0.436-0.192 0.978-0.227 1.634-0.001 0.020-0.002 0.042-0.002 0.066 0 0.206 0.051 0.401 0.141 0.572l-0.003-0.007c0.351 0.677 1.46 2.253 4.159 2.267h0.013c1.639 0 3.326-1.65 3.615-2.153l0.026-0.044c0.117-0.202 0.237-0.412 0.238-0.658 0-0.021 0-0.040 0-0.062-0.038-0.66-0.123-1.274-0.254-1.872l0.014 0.079c-0.131-0.672-0.202-1.042 0.111-1.341v0c0.485-0.485 0.21-1.718 0.058-2.263 0.478 0.398 0.417 0.798 0.346 1.26-0.040 0.256-0.081 0.521-0.038 0.814s0.18 0.371 0.292 0.436c0.147 0.085 0.273 0.158 0.157 0.792-0.104 0.566-0.066 1.030 0.121 1.463 0.162 0.375 0.434 0.741 0.914 1.223 0.504 0.507 0.438 1.056 0.294 1.427-0.005 0.012-0.008 0.026-0.008 0.040 0 0.062 0.050 0.111 0.111 0.111 0.034 0 0.065-0.015 0.085-0.040l0-0c0.577-0.691 1.239-2.042 0.916-2.499zM16.347 15.788c0 0.019 0 0.037 0 0.056 0 0.213-0.107 0.4-0.221 0.597l-0.026 0.045c-0.121 0.212-0.602 0.744-1.25 1.212-0.554 0.402-1.394 0.879-2.259 0.879h-0.013c-2.634-0.015-3.711-1.545-4.053-2.202-0.077-0.147-0.123-0.322-0.123-0.507 0-0.022 0.001-0.043 0.002-0.065l-0 0.003c0.035-0.646 0.14-1.185 0.225-1.616 0.109-0.558 0.191-0.973 0.066-1.298 0.408-0.454 0.952-0.779 1.567-0.912l0.019-0.004c0.076-0.001 0.148-0.016 0.214-0.042l-0.004 0.001c0.448-0.065 0.978-0.048 1.597 0.116 0.077 0.021 0.165 0.033 0.256 0.033 0.063 0 0.125-0.006 0.184-0.017l-0.006 0.001c0.537-0.098 2.361-0.315 3.491 0.92-0.051 0.266 0.012 0.589 0.095 1.019 0.115 0.515 0.2 1.125 0.237 1.747l0.002 0.032zM10.559 11.768c0.073-0.070 0.118-0.167 0.118-0.276 0-0.211-0.171-0.382-0.382-0.382s-0.382 0.171-0.382 0.382c0 0.139 0.074 0.261 0.185 0.327l0.002 0.001c-0.16-0.066-0.272-0.219-0.274-0.399v-0c0.013-0.242 0.213-0.434 0.457-0.434s0.444 0.192 0.457 0.433l0 0.001c-0.001 0.143-0.072 0.269-0.18 0.346l-0.001 0.001zM14.824 11.543c-0.022-0.192-0.184-0.339-0.379-0.339-0.211 0-0.382 0.171-0.382 0.382 0 0 0 0 0 0v0c0 0 0 0 0 0.001 0 0.108 0.045 0.206 0.118 0.275l0 0c-0.109-0.078-0.18-0.204-0.181-0.346v-0c0.013-0.242 0.213-0.434 0.457-0.434s0.444 0.192 0.457 0.433l0 0.001c-0.002 0.18-0.114 0.334-0.271 0.398l-0.003 0.001c0.113-0.068 0.187-0.189 0.187-0.328 0-0.015-0.001-0.030-0.003-0.045l0 0.002zM18.615 17.791c0.121-0.344 0.208-0.951-0.341-1.502-0.825-0.829-1.206-1.455-1-2.578 0.132-0.719-0.044-0.821-0.215-0.92-0.107-0.062-0.2-0.116-0.233-0.348-0.040-0.275 0-0.531 0.038-0.779 0.074-0.485 0.144-0.944-0.413-1.392-0.019-0.015-0.043-0.024-0.070-0.024-0.023 0-0.045 0.007-0.063 0.019l0-0c-0.030 0.020-0.049 0.054-0.049 0.092 0 0.010 0.001 0.021 0.004 0.030l-0-0.001c0.114 0.398 0.447 1.73-0.027 2.182v0c-0.082 0.079-0.147 0.174-0.19 0.281l-0.002 0.005c-0.374-0.382-0.845-0.667-1.373-0.815l-0.022-0.005c0.219-0.077 0.373-0.281 0.376-0.521v-0c-0.009-0.313-0.264-0.563-0.578-0.563s-0.57 0.25-0.578 0.563l-0 0.001c0.001 0.156 0.067 0.297 0.173 0.396l0 0c-0.192-0.025-0.414-0.039-0.639-0.039-0.321 0-0.636 0.029-0.942 0.084l0.032-0.005c-0.047 0.009-0.102 0.014-0.158 0.014-0.080 0-0.157-0.011-0.23-0.031l0.006 0.001c-0.334-0.090-0.717-0.142-1.112-0.142-0.109 0-0.217 0.004-0.324 0.012l0.014-0.001c0.1-0.099 0.161-0.235 0.162-0.386v-0c-0.009-0.313-0.264-0.563-0.578-0.563s-0.57 0.25-0.578 0.563l-0 0.001c0.002 0.222 0.134 0.413 0.324 0.5l0.003 0.001c-0.556 0.153-1.029 0.451-1.391 0.851l-0.002 0.002c-0.041-0.069-0.089-0.127-0.144-0.179l-0-0c-0.475-0.453-0.141-1.787-0.027-2.185 0.003-0.009 0.004-0.020 0.004-0.030 0-0.038-0.019-0.071-0.048-0.091l-0-0c-0.018-0.012-0.040-0.020-0.063-0.020h-0c-0.026 0-0.049 0.009-0.068 0.023l0-0c-0.569 0.434-0.519 0.762-0.444 1.258 0.043 0.229 0.067 0.492 0.067 0.762 0 0.057-0.001 0.113-0.003 0.17l0-0.008c-0.013 0.264-0.11 0.315-0.222 0.375-0.208 0.11-0.345 0.238-0.226 0.889 0.206 1.123-0.175 1.749-1 2.579-0.598 0.6-0.485 1.33-0.364 1.712 0 0.001 0.001 0.002 0.001 0.003 0 0.003-0.002 0.005-0.004 0.006l-0 0c-0.001 0.001-0.003 0.002-0.005 0.002s-0.003-0.001-0.005-0.002v0c-0.349-0.357-1.459-1.602-1.11-2.649 0.074-0.221 0.267-0.386 0.471-0.561 0.234-0.202 0.477-0.407 0.554-0.717 0.135-0.54 0.032-1.087-0.078-1.665-0.215-1.131-0.437-2.303 1.216-3.497 0.88-0.636 1.886-0.916 2.99-0.834 0.893 0.067 1.606 0.354 1.95 0.492l0.009 0.004c0.078 0.032 0.168 0.051 0.262 0.051 0.089 0 0.174-0.017 0.252-0.047l-0.005 0.002c2.512-0.953 4.38 0.059 4.893 0.392 0.061 0.040 0.114 0.082 0.162 0.13l-0-0c1.349 1.333 1.261 2.703 1.19 3.805-0.028 0.431-0.054 0.838 0.013 1.181 0.127 0.65 0.346 0.959 0.599 1.317l0.034 0.048c0.253 0.353-0.274 1.565-0.875 2.306z"></path>
<path d="M13.955 16.857c-0.437 0.291-1.085 0.285-1.417 0.097-0.053-0.030-0.117-0.048-0.185-0.048-0.079 0-0.153 0.024-0.213 0.066l0.001-0.001c-0.545 0.369-1.301-0.071-1.309-0.075-0.009-0.006-0.020-0.009-0.032-0.009-0.033 0-0.061 0.027-0.061 0.061 0 0.022 0.012 0.042 0.030 0.052l0 0c0.030 0.018 0.658 0.384 1.224 0.18 0.075 0.078 0.176 0.131 0.289 0.144l0.002 0c0.013 0 0.025 0 0.038 0 0.128 0 0.256-0.057 0.382-0.17l0.003-0.003c0.38 0.107 0.914 0.070 1.312-0.195 0.016-0.011 0.027-0.030 0.027-0.050 0-0.033-0.027-0.061-0.061-0.061-0.012 0-0.024 0.004-0.034 0.010l0-0zM12.299 17.204c-0.070-0.008-0.133-0.035-0.183-0.077l0.001 0c0.037-0.020 0.067-0.038 0.097-0.058l-0.004 0.002c0.040-0.028 0.090-0.044 0.144-0.044 0.046 0 0.089 0.012 0.126 0.033l-0.001-0.001c0.027 0.016 0.059 0.032 0.092 0.046l0.006 0.002c-0.070 0.060-0.162 0.097-0.262 0.097-0.005 0-0.010-0-0.015-0l0.001 0z"></path>
</symbol>
<symbol id="icon-isle-of-dogs-icon_Mayor" viewBox="0 0 25 32">
<title>isle-of-dogs-icon_Mayor</title>
<path d="M16.746 12.31c-0.032-0.143-0.093-0.234-0.181-0.27-0.025-0.010-0.053-0.016-0.083-0.016-0.014 0-0.028 0.001-0.041 0.004l0.001-0c0.038-0.535 0.154-2.769-0.507-3.54-0.722-0.842-1.021-1.191-3.437-1.314-0.984-0.050-1.692 0.115-2.105 0.492-0.271 0.246-0.328 0.51-0.34 0.615-1.441 0.489-1.365 1.55-1.31 2.326 0.021 0.296 0.040 0.552-0.023 0.727-0.097 0.276-0.072 0.669-0.003 1.050-0.032-0.011-0.069-0.017-0.108-0.017-0.069 0-0.133 0.020-0.186 0.054l0.001-0.001c-0.162 0.115-0.202 0.39-0.121 0.842 0.192 1.076 0.548 1.612 0.816 1.665 0.052 0.011 0.112 0.017 0.173 0.017 0.001 0 0.003 0 0.004 0h-0c0.075-0 0.148-0.008 0.219-0.021l-0.007 0.001c0.004 0.055 0.006 0.104 0.006 0.146 0 1.040 0.276 1.742 0.799 2.033 0.131 0.073 0.242 0.141 0.352 0.206 0.482 0.291 0.83 0.502 1.937 0.569 0.048 0.003 0.095 0.004 0.143 0.004 1.275 0 2.209-1.029 2.251-1.077 0.023-0.028 0.571-0.694 0.654-0.86 0.050-0.099 0.106-0.674 0.147-1.283 0.026 0.010 0.057 0.015 0.089 0.015h0c0.030-0 0.058-0.005 0.085-0.013l-0.002 0.001c0.295-0.084 0.566-0.603 0.698-0.905 0.024-0.053 0.041-0.114 0.049-0.179l0-0.003c0.032-0.281 0.097-0.968 0.030-1.271zM9.143 14.809c-0.127-0.025-0.503-0.356-0.72-1.567-0.093-0.518 0.005-0.674 0.071-0.721 0.081-0.057 0.193-0.023 0.249 0 0.088 0.407 0.191 0.753 0.317 1.088l-0.018-0.053c0.006 0.018 0.020 0.033 0.037 0.040l0 0 0.017 0.008c0.056 0.035 0.123 0.059 0.195 0.067l0.002 0h0.021c0.053 0.275 0.145 0.774 0.183 1.134-0.056 0.012-0.121 0.019-0.188 0.019-0.059 0-0.117-0.005-0.172-0.016l0.006 0.001zM15.75 13.293h-0.013c0 0.764-0.128 2.465-0.196 2.599-0.064 0.128-0.485 0.646-0.638 0.835-0.010 0.011-1.004 1.109-2.295 1.030-1.076-0.065-1.397-0.259-1.881-0.552-0.11-0.066-0.223-0.135-0.356-0.209-0.482-0.268-0.737-0.934-0.737-1.927 0-0.381-0.171-1.268-0.227-1.545-0.002-0.016-0.004-0.031-0.008-0.045l0.001 0.002c-0.047-0.19 0.005-1.98 0.304-2.243 0.315-0.275 0.154-1.737 0.106-2.114l0.296-0.164c0.314 0.192 0.673 0.169 0.784 0.156 0.926 1.144 1.902 0.816 1.943 0.801 0.012-0.004 0.021-0.011 0.029-0.020l0-0c0.452-0.52 1.102-0.859 1.831-0.899l0.007-0c0.285-0.016 0.477 0.022 0.548 0.050-0.126 0.212-0.327 0.987-0.389 1.236-0.001 0.005-0.002 0.011-0.002 0.017 0 0.020 0.008 0.037 0.021 0.050l0 0c0.94 0.909 0.885 2.651 0.869 2.94zM16.596 13.567c-0.007 0.054-0.021 0.103-0.042 0.149l0.001-0.003c-0.081 0.177-0.357 0.762-0.621 0.838-0.014 0.005-0.030 0.007-0.047 0.007-0.031 0-0.059-0.009-0.083-0.024l0.001 0c0.028-0.441 0.048-0.882 0.052-1.157l0.259-0.148c0.021-0.012 0.034-0.034 0.034-0.060 0-0.003-0-0.006-0-0.008l0 0c-0.011-0.106-0.017-0.23-0.017-0.354s0.006-0.248 0.018-0.37l-0.001 0.015c0.013-0.126 0.048-0.213 0.101-0.252 0.020-0.015 0.046-0.023 0.073-0.023 0.009 0 0.018 0.001 0.027 0.003l-0.001-0c0.004 0.001 0.009 0.002 0.014 0.002 0.016 0 0.030-0.005 0.042-0.014l-0 0c0.002-0.001 0.004-0.003 0.005-0.004l0-0c0.019-0.011 0.042-0.017 0.066-0.017 0.015 0 0.029 0.002 0.043 0.007l-0.001-0c0.048 0.020 0.085 0.081 0.107 0.183 0.067 0.293-0.006 1.016-0.030 1.23z"></path>
<path d="M14.253 11.313c-0.139 0.035-0.947 0.446-1.288 0.622-0.033 0.017-0.056 0.048-0.065 0.084l-0 0.001c-0.002 0.008-0.003 0.016-0.003 0.025 0 0.026 0.009 0.051 0.024 0.070l-0-0c0.022 0.027 0.055 0.044 0.093 0.045h0.011c0.134 0 0.339-0.139 0.375-0.169 0.059-0.034 0.812-0.336 0.877-0.357 0.054-0.021 0.117-0.033 0.182-0.033 0.058 0 0.114 0.009 0.166 0.027l-0.004-0.001c0.061 0.017 0.114 0.037 0.163 0.062l-0.005-0.002 0.013 0.006c0.3 0.141 0.343 0.086 0.357 0.068 0.040-0.050-0.021-0.121-0.046-0.15-0.214-0.255-0.678-0.336-0.849-0.296z"></path>
<path d="M10.63 11.636c0.065 0.021 0.818 0.323 0.877 0.357 0.036 0.030 0.24 0.169 0.374 0.169h0.011c0.037-0.001 0.070-0.018 0.092-0.045l0-0c0.015-0.019 0.024-0.043 0.024-0.070 0-0.009-0.001-0.018-0.003-0.026l0 0.001c-0.009-0.037-0.032-0.067-0.064-0.084l-0.001-0c-0.264-0.141-1.145-0.588-1.288-0.625-0.171-0.043-0.635 0.040-0.848 0.296-0.025 0.030-0.084 0.101-0.046 0.15 0.014 0.018 0.057 0.074 0.356-0.068l0.013-0.006c0.046-0.023 0.099-0.044 0.155-0.059l0.006-0.002c0.046-0.015 0.099-0.023 0.154-0.023 0.067 0 0.131 0.012 0.19 0.035l-0.004-0.001z"></path>
<path d="M12.075 14.909c0.062-0.015 0.084-0.002 0.136 0.029 0.069 0.046 0.151 0.078 0.239 0.092l0.004 0c0.026 0.005 0.056 0.007 0.087 0.007 0.001 0 0.001 0 0.002 0h-0c0.11-0.001 0.213-0.034 0.299-0.091l-0.002 0.001c0.027-0.018 0.060-0.028 0.095-0.028 0.006 0 0.012 0 0.018 0.001l-0.001-0c0.043 0.005 0.093 0.008 0.144 0.008 0.081 0 0.159-0.007 0.236-0.021l-0.008 0.001c0.141-0.027 0.256-0.119 0.314-0.244l0.001-0.003c0.012-0.028 0.018-0.061 0.018-0.096 0-0.060-0.020-0.114-0.054-0.158l0 0.001c-0.081-0.105-0.216-0.178-0.316-0.221-0.053-0.023-0.093-0.070-0.105-0.127l-0-0.001c-0.052-0.242-0.144-0.694-0.173-0.955-0.004-0.031-0.029-0.054-0.061-0.054-0.034 0-0.061 0.027-0.061 0.061 0 0.002 0 0.005 0 0.007l-0-0c0.030 0.266 0.121 0.72 0.175 0.966 0.021 0.098 0.087 0.176 0.175 0.214l0.002 0.001c0.086 0.037 0.202 0.098 0.266 0.182 0.019 0.023 0.030 0.053 0.030 0.085 0 0.019-0.004 0.037-0.011 0.053l0-0.001c-0.043 0.089-0.125 0.153-0.223 0.171l-0.002 0c-0.062 0.011-0.133 0.017-0.206 0.017-0.046 0-0.092-0.003-0.137-0.007l0.006 0.001c-0.008-0.001-0.018-0.001-0.028-0.001-0.060 0-0.116 0.018-0.163 0.048l0.001-0.001c-0.065 0.044-0.146 0.070-0.232 0.070-0.024 0-0.047-0.002-0.070-0.006l0.002 0c-0.076-0.012-0.144-0.039-0.204-0.078l0.002 0.001c-0.043-0.033-0.098-0.053-0.158-0.053-0.025 0-0.049 0.004-0.072 0.010l0.002-0c-0.179 0.045-0.341 0.063-0.501-0.177-0.011-0.012-0.018-0.029-0.018-0.047 0-0.005 0.001-0.010 0.001-0.014l-0 0c0.019-0.066 0.162-0.132 0.274-0.185s0.221-0.103 0.267-0.172c0.086-0.129 0.124-0.889 0.131-1.041 0-0.001 0-0.002 0-0.003 0-0.034-0.027-0.061-0.061-0.061-0.033 0-0.059 0.026-0.061 0.058v0c-0.019 0.429-0.066 0.912-0.111 0.979-0.027 0.040-0.129 0.088-0.218 0.129-0.15 0.070-0.306 0.143-0.339 0.262-0.004 0.014-0.006 0.031-0.006 0.048 0 0.043 0.014 0.083 0.038 0.114l-0-0c0.223 0.327 0.491 0.26 0.634 0.226z"></path>
<path d="M13.425 15.642c-0.067-0.024-0.404-0.147-0.495-0.147-0.066 0.002-0.129 0.009-0.19 0.020l0.008-0.001c-0.066 0.013-0.143 0.021-0.221 0.022h-0.001c-0.027-0.001-0.053-0.006-0.078-0.014l0.002 0.001c-0.059-0.017-0.127-0.028-0.198-0.028-0.003 0-0.006 0-0.010 0h0.001c-0.162 0-0.667 0.214-0.776 0.278-0.022 0.013-0.036 0.037-0.036 0.063 0 0.005 0 0.009 0.001 0.013l-0-0c0.005 0.030 0.028 0.053 0.057 0.058l0 0c0.153 0.029 0.543 0.044 1.161 0.044q0.441 0 1.036-0.010h0.092c0 0 0.001 0 0.001 0 0.011 0 0.021-0.002 0.031-0.005l-0.001 0c0.026-0.008 0.045-0.033 0.045-0.061 0-0 0-0 0-0v0c0-0.044 0-0.077-0.43-0.233zM11.673 15.806c0.19-0.084 0.478-0.19 0.569-0.19 0.002-0 0.005-0 0.008-0 0.060 0 0.118 0.009 0.173 0.025l-0.004-0.001c0.032 0.010 0.068 0.016 0.106 0.017h0.001c0.086-0.001 0.169-0.010 0.25-0.024l-0.009 0.001c0.048-0.009 0.104-0.015 0.162-0.017l0.002-0c0.061 0 0.404 0.116 0.626 0.205-1.094 0.017-1.628 0.004-1.882-0.015z"></path>
<path d="M11.646 12.404c0-0.040-0.034-0.253-0.697-0.253s-0.764 0.21-0.774 0.234c-0.002 0.005-0.004 0.012-0.004 0.019 0 0.010 0.003 0.018 0.007 0.026l-0-0c0.121 0.202 0.488 0.253 0.727 0.264 0.013 0.002 0.028 0.003 0.044 0.003h0.081c0.298 0 0.586-0.242 0.598-0.255 0.011-0.009 0.017-0.023 0.017-0.038 0-0 0-0 0-0v0zM10.657 12.444c0 0.048 0.015 0.092 0.041 0.128l-0-0.001c-0.18-0.027-0.339-0.081-0.413-0.168 0.038-0.038 0.154-0.119 0.465-0.144-0.056 0.043-0.092 0.109-0.093 0.184v0zM11.206 12.566c0.023-0.034 0.036-0.076 0.036-0.121v0c-0.001-0.075-0.037-0.141-0.092-0.183l-0.001-0c0.278 0.023 0.364 0.094 0.386 0.127-0.094 0.073-0.203 0.134-0.321 0.176l-0.008 0.003z"></path>
<path d="M13.852 12.031c-0.665 0.083-0.69 0.343-0.691 0.372 0 0 0 0.001 0 0.001 0 0.021 0.012 0.039 0.030 0.047l0 0c0.173 0.073 0.373 0.118 0.583 0.125l0.003 0h0.054c0.009 0 0.018 0 0.027 0 0.026-0 0.052-0.003 0.077-0.009l-0.002 0c0.242-0.025 0.542-0.107 0.653-0.254 0.006-0.008 0.010-0.019 0.010-0.030 0-0.004-0-0.007-0.001-0.011l0 0c-0.002-0.014-0.010-0.026-0.022-0.033l-0-0c-0.015-0.009-0.383-0.251-0.721-0.209zM13.616 12.462c-0.128-0.020-0.242-0.050-0.351-0.092l0.012 0.004c0.026-0.047 0.106-0.135 0.346-0.198-0.034 0.039-0.054 0.091-0.055 0.147v0c0 0.053 0.018 0.101 0.049 0.139l-0-0zM14.123 12.434c0.019-0.032 0.030-0.070 0.030-0.111v-0c-0.001-0.075-0.038-0.142-0.094-0.184l-0.001-0c0.154 0.032 0.29 0.085 0.414 0.158l-0.006-0.003c-0.078 0.063-0.209 0.111-0.346 0.141z"></path>
</symbol>
<symbol id="icon-isle-of-dogs-icon_Rex" viewBox="0 0 25 32">
<title>isle-of-dogs-icon_Rex</title>
<path d="M16.761 18.707l-0.005-0.059c-0.035-0.418-0.081-0.831-0.129-1.23-0.141-1.212-0.286-2.465-0.081-4.033 0.038-0.29 0.071-0.533 0.101-0.747 0.144-1.046 0.174-1.264-0.048-1.814-0.103-0.257-0.224-0.333-0.289-0.373l-0.005-0.003c0.006-0.008 0.015-0.019 0.029-0.034 0.248-0.279 0.329-0.95 0.215-1.795-0.112-0.829-0.379-1.636-0.716-2.161-0.331-0.515-0.706-0.727-1.086-0.609-1.414 0.432-1.825 3.181-1.893 3.727-0 0.004-0.004 0.007-0.008 0.007-0 0-0 0-0 0h-1.006c-0 0-0 0-0.001 0-0.020 0-0.036-0.014-0.040-0.032l-0-0c-0.124-0.553-0.817-3.333-2.215-3.76-0.216-0.066-0.406-0.034-0.566 0.095-0.768 0.617-0.614 3.394-0.548 4.233 0.001 0.010 0.001 0.022 0.001 0.035 0 0.103-0.034 0.198-0.091 0.275l0.001-0.001c-0.698 0.951-0.415 2.392-0.261 2.968 0.362 1.351 0.198 2.453 0.040 3.519-0.097 0.653-0.188 1.27-0.156 1.915 0.004 0.084 0.005 0.169 0.005 0.258 0.003 0.489 0.006 1.044 0.653 1.516 0.278 0.203 0.617 0.34 0.985 0.381l0.009 0.001 0.099 0.011c0.68 0.074 2.026 0.219 3.281 0.219 0.873 0 1.702-0.070 2.234-0.283 1.627-0.653 1.545-1.597 1.492-2.223zM15.226 20.816c-1.268 0.509-4.311 0.181-5.455 0.057l-0.099-0.011c-0.358-0.036-0.681-0.164-0.951-0.359l0.006 0.004c-0.597-0.436-0.6-0.936-0.603-1.419 0-0.091 0-0.177-0.005-0.264-0.032-0.632 0.058-1.244 0.154-1.891 0.16-1.078 0.323-2.193-0.043-3.568-0.449-1.677 0.020-2.562 0.242-2.865 0.071-0.095 0.114-0.215 0.114-0.346 0-0.016-0.001-0.031-0.002-0.046l0 0.002c-0.133-1.694-0.071-3.668 0.503-4.129 0.075-0.063 0.173-0.102 0.28-0.102 0.001 0 0.002 0 0.003 0h-0c0.062 0.001 0.122 0.011 0.178 0.029l-0.004-0.001c1.333 0.409 2.011 3.13 2.133 3.671 0.016 0.073 0.081 0.127 0.158 0.127 0.001 0 0.001 0 0.002 0h1.006c0.066-0 0.12-0.049 0.128-0.112l0-0.001c0.090-0.689 0.238-1.309 0.442-1.902l-0.020 0.067c0.158-0.455 0.343-0.834 0.55-1.124 0.248-0.35 0.53-0.575 0.837-0.669 0.407-0.124 0.74 0.235 0.948 0.559 0.703 1.095 0.996 3.267 0.513 3.81-0.043 0.049-0.076 0.089-0.069 0.136s0.040 0.064 0.072 0.084c0.057 0.036 0.152 0.096 0.242 0.316 0.21 0.52 0.184 0.708 0.040 1.753-0.029 0.214-0.063 0.457-0.101 0.747-0.205 1.583-0.059 2.844 0.081 4.063 0.046 0.398 0.094 0.811 0.128 1.226l0.005 0.059c0.051 0.589 0.128 1.48-1.414 2.098z"></path>
<path d="M12.421 14.128c-0.011 0.001-0.024 0.001-0.037 0.001-0.029 0-0.057-0.002-0.085-0.005l0.003 0c-0.219-0.024-0.949-0.065-1.178 0.436-0.112 0.244-0.051 0.656 0.162 1.1s0.606 0.946 0.994 1.042c0.030 0.008 0.064 0.013 0.099 0.013 0 0 0 0 0.001 0h-0c0.561 0 1.128-1.121 1.295-1.482 0.022-0.046 0.039-0.099 0.047-0.155l0-0.003c0.020-0.147 0.024-0.427-0.181-0.646-0.212-0.232-0.589-0.333-1.12-0.301zM13.604 15.059c-0.007 0.046-0.020 0.088-0.039 0.126l0.001-0.003c-0.292 0.628-0.739 1.322-1.114 1.403 0.067-0.874 0.013-1.609-0.005-1.663-0.008-0.025-0.031-0.043-0.059-0.043-0.006 0-0.013 0.001-0.018 0.003l0-0c-0.025 0.007-0.043 0.030-0.043 0.057 0 0.007 0.001 0.013 0.003 0.019l-0-0c0.014 0.061 0.066 0.77 0 1.632l-0.020-0.004c-0.301-0.075-0.668-0.468-0.914-0.977-0.198-0.412-0.259-0.785-0.162-0.998 0.146-0.32 0.554-0.378 0.832-0.378 0.078 0 0.155 0.005 0.231 0.013l-0.009-0.001c0.028 0.003 0.060 0.005 0.093 0.005 0.016 0 0.032-0 0.048-0.001l-0.002 0c0.493-0.030 0.838 0.059 1.025 0.261 0.172 0.185 0.168 0.424 0.151 0.55z"></path>
<path d="M14.38 13.035c0.012 0 0.024 0 0.036 0 0.374 0 0.678-0.273 0.678-0.608s-0.304-0.608-0.678-0.608-0.678 0.274-0.678 0.61c0.001 0.123 0.041 0.237 0.109 0.329l-0.001-0.002c-0.179-0.084-0.219-0.113-0.474-0.298-0.057-0.040-0.123-0.090-0.205-0.149-0.061-0.044-0.112-0.081-0.156-0.114-0.28-0.206-0.297-0.218-0.606-0.274-0.013-0.002-0.035-0.005-0.049-0.007-0.003-0.001-0.007-0.001-0.010-0.001s-0.007 0-0.010 0.001l0-0-0.115-0.010h-0.005c-0.011-0.001-0.023-0.001-0.035-0.001-0.036 0-0.071 0.003-0.106 0.009l0.004-0.001c-0.049 0.008-0.090 0.013-0.129 0.017-0.198 0.021-0.316 0.048-0.641 0.392-0.1 0.104-0.196 0.214-0.286 0.329l-0.007 0.009c0.010-0.040 0.016-0.085 0.017-0.132v-0c0-0.335-0.304-0.608-0.678-0.608s-0.678 0.273-0.678 0.608 0.306 0.606 0.68 0.606c0.030-0 0.059-0.002 0.088-0.006l-0.004 0c-0.49 0.399-1.010 1.016-1.126 1.477-0.065 0.26-0.078 1.045 0.065 1.843 0.121 0.678 0.387 1.529 0.962 1.742 0.077 0.057 0.644 0.433 1.826 0.166l0.051-0.016c0.036-0.012 0.116-0.038 0.146-0.046l0.123 0.036c0.244 0.072 0.493 0.145 0.797 0.145 0.276 0 0.598-0.061 1.004-0.238 1.021-0.444 1.284-3.088 1.145-3.643-0.113-0.451-0.544-1.187-1.051-1.558zM14.416 11.942c0.307 0 0.557 0.218 0.557 0.487 0 0.242-0.206 0.444-0.474 0.481 0.204-0.041 0.356-0.219 0.356-0.432 0-0.017-0.001-0.033-0.003-0.050l0 0.002c-0.034-0.216-0.219-0.379-0.442-0.379-0.24 0-0.437 0.19-0.447 0.428l-0 0.001c0.001 0.199 0.134 0.366 0.315 0.42l0.003 0.001c-0.242-0.053-0.421-0.242-0.421-0.472-0.002-0.267 0.248-0.487 0.556-0.487zM9.796 12.525c0-0.268 0.25-0.487 0.557-0.487s0.556 0.218 0.556 0.487c0 0.227-0.18 0.419-0.421 0.472 0.186-0.057 0.32-0.227 0.32-0.428 0-0.247-0.2-0.447-0.447-0.447s-0.447 0.2-0.447 0.447c0 0.214 0.151 0.393 0.352 0.437l0.003 0.001c-0.266-0.036-0.472-0.238-0.472-0.481zM14.238 18.127c-0.811 0.354-1.253 0.225-1.719 0.087l-0.138-0.040c-0.005-0.002-0.010-0.002-0.016-0.002-0 0-0 0-0 0v0c-0.019 0-0.053 0.011-0.187 0.054l-0.040 0.013c-1.187 0.268-1.727-0.145-1.732-0.149s-0.011-0.007-0.017-0.010l-0-0c-0.411-0.147-0.727-0.735-0.893-1.653-0.139-0.772-0.127-1.55-0.067-1.792 0.121-0.485 0.764-1.202 1.288-1.566 0.276-0.192 0.304-0.222 0.391-0.333 0.095-0.121 0.19-0.229 0.289-0.332l-0.001 0.001c0.309-0.327 0.4-0.337 0.566-0.354 0.040-0.004 0.085-0.009 0.138-0.019 0.025-0.004 0.054-0.006 0.083-0.006 0.010 0 0.020 0 0.029 0.001l-0.001-0 0.169 0.015h0.003c0.281 0.051 0.281 0.051 0.555 0.252l0.157 0.114 0.204 0.148c0.308 0.224 0.314 0.227 0.606 0.364l0.187 0.086c0.562 0.262 1.098 1.134 1.219 1.62 0.131 0.519-0.127 3.088-1.074 3.503z"></path>
<path d="M11.895 14.935c-0.049-0.034-0.151-0.075-0.219-0.040-0.076 0.040-0.137 0.187-0.093 0.278 0 0.003 0.004 0.008 0.006 0.013 0.017 0.039 0.036 0.073 0.059 0.104l-0.001-0.001c0.021 0.025 0.046 0.045 0.074 0.060l0.001 0.001 0.006 0.004c0.040 0.025 0.038 0.036 0.033 0.065v0.004c-0.007 0.038-0.043 0.055-0.106 0.051-0.202-0.011-0.211-0.004-0.217 0.014s0.011 0.027 0.020 0.032c0.067 0.033 0.145 0.053 0.228 0.054h0.001c0.002 0 0.005 0 0.008 0 0.121 0 0.226-0.063 0.286-0.158l0.001-0.001c0.070-0.105 0.058-0.227 0.037-0.332-0.015-0.069-0.106-0.133-0.124-0.148z"></path>
<path d="M13.044 15.477c-0.064 0.003-0.099-0.014-0.106-0.052v-0.004c-0.005-0.030-0.008-0.040 0.033-0.066l0.006-0.004c0.029-0.016 0.054-0.037 0.075-0.061l0-0c0.022-0.030 0.041-0.064 0.057-0.1l0.001-0.003 0.006-0.013c0.044-0.091-0.017-0.238-0.092-0.278-0.068-0.036-0.171 0.005-0.219 0.040-0.018 0.013-0.11 0.081-0.124 0.15-0.021 0.105-0.034 0.227 0.036 0.332 0.061 0.096 0.167 0.159 0.287 0.159 0.003 0 0.006-0 0.008-0h-0c0.084-0.002 0.163-0.022 0.233-0.056l-0.003 0.001c0.008-0.005 0.024-0.016 0.019-0.032s-0.018-0.026-0.218-0.015z"></path>
<path d="M11.212 9.414c0.026-0.036 0.042-0.082 0.042-0.131 0-0.019-0.002-0.038-0.007-0.056l0 0.002c-0.063-0.376-0.953-2.090-1.548-2.329-0.148-0.059-0.25-0.019-0.309 0.026-0.467 0.35-0.427 2.39-0.404 3.007 0.002 0.052 0.045 0.094 0.097 0.094h0c0.019-0 0.036-0.005 0.051-0.014l-0 0c0.689-0.409 1.253-0.45 1.625-0.478 0.231-0.015 0.38-0.026 0.453-0.121zM9.105 9.889c-0.067-1.866 0.15-2.711 0.357-2.866 0.025-0.020 0.058-0.032 0.093-0.032 0.001 0 0.001 0 0.002 0h-0c0.035 0.001 0.068 0.009 0.098 0.022l-0.002-0.001c0.525 0.21 1.406 1.829 1.474 2.236 0.011 0.064-0.006 0.084-0.011 0.091-0.040 0.051-0.184 0.062-0.366 0.075-0.379 0.030-0.947 0.072-1.645 0.476z"></path>
<path d="M15.341 6.844c-0.25-0.292-0.467-0.283-0.606-0.227-0.737 0.309-1.034 2.373-1.086 2.784-0.001 0.004-0.001 0.009-0.001 0.013 0 0.029 0.012 0.055 0.031 0.074v0c0.018 0.018 0.044 0.030 0.072 0.030 0.005 0 0.010-0 0.015-0.001l-0.001 0c0.707-0.1 1.718 0.37 1.914 0.465 0.013 0.007 0.029 0.010 0.046 0.011h0c0 0 0 0 0 0 0.037 0 0.069-0.019 0.087-0.048l0-0c0.205-0.331 0.255-0.908 0.137-1.582-0.107-0.624-0.341-1.205-0.608-1.518zM15.719 9.866c-0.209-0.101-1.050-0.485-1.746-0.485-0.002 0-0.004 0-0.006 0-0.068 0-0.136 0.004-0.202 0.013l0.008-0.001c0.142-1.099 0.49-2.447 1.010-2.665 0.147-0.061 0.303 0.004 0.465 0.194 0.254 0.297 0.477 0.856 0.582 1.46 0.11 0.629 0.067 1.179-0.112 1.484z"></path>
</symbol>
<symbol id="icon-isle-of-dogs-icon_Spots" viewBox="0 0 25 32">
<title>isle-of-dogs-icon_Spots</title>
<path d="M17.737 10.499c-0.021-0.384-0.107-1.058-0.457-1.261-0.431-0.251-2.442-0.187-2.67-0.179-0.39 0.014-0.694 0.147-0.905 0.396-0.382 0.451-0.341 1.151-0.312 1.4l-0.193-0.040c-0.080-0.018-0.172-0.029-0.267-0.029h-0c-0.134 0-0.321 0-0.4 0.002-0.022 0.001-0.042 0.002-0.063 0.005l0.003-0-0.357 0.046c0.029-0.245 0.072-0.939-0.305-1.394-0.211-0.254-0.518-0.39-0.912-0.404-0.566-0.020-1.616-0.057-2.201 0.056-0.081 0.015-0.409 0.1-0.46 0.119-0.238 0.091-0.399 0.404-0.467 0.904-0.155 1.136 0.213 2.859 0.92 3.41 0.025 0.261 0.225 2.384 0.184 3.223-0.009 0.055-0.015 0.119-0.016 0.184l-0 0.001c-0.096 0.707 0.138 1.8 0.419 2.516 0.277 0.705 1.086 1.28 1.376 1.402l0.007 0.002c0.41 0.113 0.903 0.206 1.408 0.262l0.045 0.004c0.274 0.032 0.593 0.051 0.915 0.052h0.001c0.864 0 1.455-0.151 1.825-0.3 0.288-0.116 1.095-0.683 1.377-1.402s0.517-1.815 0.419-2.522c-0.090-0.657 0.141-3.12 0.169-3.403 0.65-0.507 0.977-1.941 0.918-3.050zM14.614 9.18c0.771-0.027 2.124-0.027 2.543 0.134l-1.826 1.787c-0.004 0.004-0.009 0.006-0.015 0.006-0.003 0-0.006-0.001-0.008-0.002l0 0c-0.007-0.003-0.013-0.009-0.013-0.017v-0c-0.045-0.737-0.744-1.629-0.949-1.875 0.079-0.018 0.17-0.030 0.264-0.033l0.003-0zM8.721 9.212c0.571-0.111 1.654-0.072 2.174-0.053 0.099 0.003 0.194 0.016 0.285 0.037l-0.010-0.002c-0.147 0.178-0.292 0.375-0.425 0.581l-0.015 0.025c-0.327 0.512-0.497 0.952-0.505 1.309l-1.849-1.809c0.114-0.031 0.292-0.076 0.345-0.088zM16.118 19.429c-0.265 0.675-1.044 1.227-1.309 1.333-1.625 0.65-4.007 0.008-4.112-0.021-0.279-0.118-1.044-0.664-1.307-1.333-0.276-0.703-0.506-1.775-0.412-2.461 0.007-0.050 0.012-0.109 0.015-0.176 0.051-0.356 0.28-1.199 1.299-1.692 1.348-0.652 2.075-0.18 2.303 0.023l-0.003 0.003 0.065 0.059c0.005 0.005 0.010 0.011 0.015 0.017l0 0 0.002-0.002 0.007 0.006c0.007-0.008 0.774-0.84 2.403-0.11 1.327 0.596 1.432 1.85 1.433 1.863h0.005c0 0.009 0 0.019 0.003 0.027 0.096 0.689-0.134 1.758-0.41 2.461zM11.398 14.594c0.102-0.108 0.164-0.254 0.164-0.415 0-0.265-0.17-0.49-0.406-0.572l-0.004-0.001c0.043 0 0.087 0.004 0.132 0.007 0.105 0.008 0.196 0.063 0.253 0.144l0.001 0.001c0.087 0.126 0.182 0.323 0.139 0.546-0.028 0.143-0.137 0.256-0.275 0.29l-0.003 0.001zM10.351 14.182c0.002 0.259 0.166 0.479 0.396 0.564l0.004 0.001-0.206 0.050c-0.088-0.036-0.503-0.24-0.372-0.827 0-0.005 0.030-0.126 0.214-0.229 0.086-0.048 0.187-0.084 0.293-0.104l0.006-0.001c-0.201 0.102-0.336 0.306-0.336 0.542 0 0.001 0 0.002 0 0.002v-0zM14.873 14.812c0.237-0.086 0.403-0.309 0.403-0.571 0-0.238-0.137-0.443-0.336-0.543l-0.004-0.002c0.112 0.021 0.213 0.057 0.305 0.107l-0.005-0.003c0.184 0.103 0.213 0.224 0.214 0.229 0.131 0.587-0.283 0.791-0.372 0.827zM14.061 14.241c0 0.161 0.063 0.306 0.165 0.414l-0-0c-0.141-0.035-0.249-0.147-0.277-0.288l-0-0.002c-0.043-0.223 0.052-0.42 0.139-0.546 0.057-0.082 0.148-0.137 0.252-0.145l0.001-0c0.045-0.004 0.089-0.006 0.132-0.007-0.242 0.083-0.412 0.309-0.413 0.574v0zM16.727 13.467l-0.022 0.016-0.003 0.027c-0.009 0.091-0.181 1.859-0.192 2.895-0.168-0.444-0.542-1.064-1.374-1.436h-0.003c0.127-0.057 0.58-0.311 0.434-0.961-0.005-0.022-0.133-0.538-1.235-0.452-0.143 0.011-0.266 0.086-0.343 0.195l-0.001 0.002c-0.101 0.145-0.21 0.373-0.158 0.638 0.020 0.108 0.075 0.201 0.152 0.27l0 0c-0.699-0.046-1.123 0.221-1.298 0.364-0.15-0.132-0.328-0.235-0.525-0.299l-0.011-0.003c-0.164-0.055-0.353-0.087-0.549-0.090h-0.001c0.1-0.071 0.171-0.177 0.195-0.301l0-0.003c0.051-0.265-0.058-0.493-0.158-0.638-0.078-0.111-0.201-0.186-0.342-0.197l-0.002-0c-1.102-0.086-1.23 0.43-1.235 0.452-0.13 0.582 0.219 0.846 0.385 0.937-0.071 0.030-0.138 0.060-0.202 0.091-0.72 0.348-1.057 0.863-1.212 1.234-0.010 0.024-0.019 0.047-0.028 0.070-0.021-1.045-0.182-2.698-0.19-2.788l-0.003-0.027-0.022-0.016c-0.323-0.238-0.594-0.752-0.764-1.448-0.154-0.63-0.202-1.328-0.129-1.865 0.057-0.42 0.183-0.699 0.356-0.791l1.911 1.87c0.020 0.020 0.048 0.032 0.078 0.032 0.016 0 0.031-0.003 0.044-0.009l-0.001 0c0.040-0.017 0.068-0.056 0.068-0.102 0-0 0-0 0-0v0c0.002-0.739 0.804-1.726 0.951-1.901 0.168 0.059 0.309 0.159 0.416 0.287l0.001 0.002c0.392 0.474 0.283 1.272 0.27 1.361-0.001 0.004-0.001 0.008-0.001 0.012 0 0.019 0.008 0.037 0.020 0.050l-0-0c0.014 0.014 0.033 0.023 0.054 0.023 0.003 0 0.006-0 0.009-0.001l-0 0 0.419-0.054c0.014-0.002 0.031-0.004 0.047-0.004h0c0.078-0.002 0.263-0.003 0.396-0.002 0.086 0.001 0.17 0.010 0.25 0.028l-0.008-0.001 0.227 0.049h0.006c0.003 0 0.007 0.001 0.011 0.001 0.055 0 0.099-0.044 0.099-0.099 0-0.004-0-0.009-0.001-0.013l0 0.001c-0.027-0.204-0.086-0.903 0.281-1.337 0.11-0.128 0.252-0.226 0.414-0.281l0.007-0.002c0.126 0.149 0.911 1.103 0.956 1.846 0.004 0.056 0.040 0.102 0.089 0.121l0.001 0c0.015 0.006 0.033 0.010 0.052 0.010h0c0 0 0 0 0 0 0.038 0 0.073-0.015 0.099-0.040l-0 0 1.85-1.811c0.189 0.16 0.32 0.573 0.35 1.13 0.058 1.091-0.259 2.495-0.889 2.962z"></path>
<path d="M12.663 15.812v-0.003h-0.044c-0.198 0.011-0.987 0.076-1.253 0.461-0.175 0.255-0.234 0.538-0.166 0.795 0.061 0.228 0.216 0.411 0.42 0.509l0.005 0.002c0.051 0.025 0.128 0.074 0.217 0.13 0.259 0.166 0.615 0.394 0.883 0.39 0.013 0 0.025 0 0.038 0 0.353 0 0.858-0.383 1.010-0.505 0.017-0.014 0.035-0.027 0.053-0.040 0.437-0.306 0.495-0.762 0.162-1.25-0.267-0.384-1.118-0.472-1.324-0.488zM13.754 17.454c-0.020 0.015-0.040 0.029-0.060 0.044-0.105 0.085-0.646 0.505-0.963 0.477h-0.012c-0.232 0-0.582-0.223-0.814-0.371-0.092-0.059-0.171-0.109-0.228-0.137-0.176-0.084-0.307-0.239-0.358-0.426l-0.001-0.005c-0.059-0.223-0.006-0.47 0.149-0.695 0.234-0.341 1.001-0.4 1.167-0.409 0.149 0.011 1.010 0.089 1.25 0.44 0.21 0.305 0.357 0.741-0.13 1.083z"></path>
<path d="M12.094 16.59c-0.098 0.007-0.182 0.060-0.232 0.136l-0.001 0.001c-0.029 0.046-0.047 0.102-0.047 0.161 0 0.025 0.003 0.050 0.009 0.074l-0-0.002c0.003 0.014 0.005 0.029 0.005 0.046v0l-0.004 0.004-0.006 0.005c-0.046 0.049-0.129 0.045-0.162 0.040h-0.007c-0.046 0-0.117-0.002-0.129 0.059-0.001 0.004-0.001 0.008-0.001 0.013 0 0.018 0.007 0.034 0.019 0.047l-0-0c0.046 0.051 0.253 0.116 0.47 0.116 0.025 0 0.049 0 0.074-0.003 0.111-0.009 0.209-0.057 0.283-0.129l-0 0c0.033-0.035 0.058-0.078 0.069-0.127l0-0.002c0.044-0.143 0.023-0.267-0.059-0.35-0.064-0.056-0.148-0.090-0.24-0.090-0.015 0-0.030 0.001-0.045 0.003l0.002-0z"></path>
<path d="M13.726 17.091h-0.007c-0.033 0.004-0.115 0.009-0.162-0.040l-0.005-0.005-0.003-0.002c-0-0.002-0-0.005-0-0.008 0-0.014 0.002-0.028 0.005-0.041l-0 0.001c0.005-0.021 0.009-0.046 0.009-0.072 0-0.060-0.017-0.116-0.047-0.162l0.001 0.001c-0.052-0.077-0.136-0.13-0.232-0.137l-0.001-0c-0.013-0.002-0.028-0.003-0.043-0.003-0.092 0-0.176 0.034-0.24 0.090l0-0c-0.081 0.084-0.103 0.208-0.059 0.35 0.012 0.050 0.037 0.094 0.070 0.129l-0-0c0.074 0.072 0.172 0.12 0.281 0.129l0.002 0c0.025 0 0.050 0.002 0.074 0.002 0.217 0 0.424-0.064 0.47-0.116 0.011-0.012 0.019-0.028 0.019-0.046 0-0.004-0-0.009-0.001-0.013l0 0c-0.013-0.058-0.083-0.058-0.129-0.058z"></path>
</symbol>
<symbol id="icon-isle-of-dogs-icon_Tracy" viewBox="0 0 25 32">
<title>isle-of-dogs-icon_Tracy</title>
<path d="M13.669 17.899c-0.314 0.040-1.153 0-1.161 0-0.001-0-0.001-0-0.002-0-0.028 0-0.051 0.018-0.059 0.044l-0 0c-0.001 0.005-0.002 0.011-0.002 0.017 0 0.023 0.012 0.042 0.031 0.053l0 0c0.254 0.141 0.476 0.189 0.659 0.189 0.006 0 0.014 0 0.021 0 0.214 0 0.41-0.074 0.564-0.198l-0.002 0.001c0.012-0.011 0.020-0.027 0.020-0.045 0-0.033-0.027-0.061-0.061-0.061-0.003 0-0.005 0-0.008 0.001l0-0zM12.828 18.032c0.174 0.005 0.389 0.009 0.574 0.004-0.084 0.027-0.181 0.042-0.281 0.042-0.105 0-0.206-0.017-0.3-0.048l0.007 0.002z"></path>
<path d="M12.45 17.006c0.008 0.050 0.040 0.121 0.154 0.162 0.006 0.003 0.014 0.004 0.021 0.004 0 0 0 0 0 0v0c0.033-0 0.060-0.027 0.060-0.061 0-0.026-0.016-0.048-0.038-0.056l-0-0c-0.071-0.027-0.076-0.058-0.078-0.069-0.014-0.081 0.118-0.232 0.216-0.313 0.013-0.011 0.021-0.028 0.021-0.046 0-0.033-0.027-0.061-0.061-0.061-0.014 0-0.027 0.005-0.037 0.013l0-0c-0.030 0.025-0.289 0.243-0.259 0.427z"></path>
<path d="M13.374 16.684s0.114 0.040 0.141 0.132c0.021 0.069-0.009 0.156-0.088 0.258-0.008 0.010-0.013 0.023-0.013 0.037 0 0.019 0.009 0.037 0.023 0.048l0 0c0.010 0.008 0.023 0.013 0.037 0.013 0 0 0 0 0 0h-0c0 0 0 0 0 0 0.019 0 0.036-0.009 0.047-0.023l0-0c0.105-0.135 0.142-0.259 0.109-0.368-0.046-0.152-0.211-0.209-0.219-0.211-0.006-0.002-0.013-0.003-0.020-0.003-0.034 0-0.061 0.027-0.061 0.061 0 0.026 0.017 0.049 0.040 0.057l0 0z"></path>
<path d="M12.576 15.273l0.020-0.121c-0.124-0.021-1.218-0.199-1.435 0.149l0.103 0.064c0.13-0.209 0.875-0.168 1.312-0.092z"></path>
<path d="M13.495 15.114l0.038 0.115c0.007-0.002 0.712-0.231 1.289 0.038l0.051-0.11c-0.619-0.288-1.346-0.053-1.378-0.043z"></path>
<path d="M11.733 15.444c-0.566 0.044-0.572 0.491-0.572 0.495v0.038l0.037 0.010c0.191 0.058 0.411 0.092 0.638 0.095l0.002 0c0.007 0 0.015 0 0.023 0 0.176 0 0.345-0.034 0.499-0.095l-0.009 0.003c0.003-0.002 0.006-0.003 0.010-0.004l0-0c0.019-0.006 0.061-0.031 0.043-0.121-0.038-0.181-0.252-0.454-0.671-0.422zM11.685 15.552c-0.078 0.046-0.13 0.13-0.13 0.226 0 0.076 0.033 0.145 0.085 0.193l0 0c-0.142-0.015-0.269-0.040-0.392-0.073l0.018 0.004c0.015-0.088 0.085-0.303 0.419-0.35zM11.993 15.973c0.054-0.048 0.088-0.118 0.088-0.196 0-0.087-0.042-0.164-0.108-0.212l-0.001-0.001c0.096 0.027 0.177 0.079 0.238 0.149l0 0.001c0.047 0.050 0.080 0.112 0.094 0.182l0 0.002c-0.091 0.037-0.198 0.063-0.308 0.073l-0.005 0z"></path>
<path d="M14.218 15.424c-0.566 0.044-0.572 0.491-0.572 0.495v0.032l0.030 0.013c0.139 0.066 0.303 0.104 0.475 0.104 0.002 0 0.004 0 0.006-0h-0c0.224-0.001 0.435-0.055 0.622-0.149l-0.008 0.004 0.027-0.014v-0.030c-0.005-0.131-0.060-0.248-0.146-0.332l-0-0c-0.103-0.095-0.248-0.136-0.434-0.122zM14.057 15.962c-0.112-0.010-0.216-0.036-0.312-0.077l0.007 0.002c0.012-0.081 0.074-0.294 0.388-0.351-0.093 0.041-0.157 0.133-0.157 0.24 0 0.072 0.029 0.138 0.077 0.185v0zM14.457 15.929c0.030-0.042 0.047-0.094 0.047-0.15 0-0.122-0.083-0.224-0.195-0.253l-0.002-0c0.004-0 0.008-0 0.012-0 0.101 0 0.193 0.036 0.264 0.096l-0.001-0.001c0.060 0.059 0.101 0.139 0.112 0.227l0 0.002c-0.067 0.031-0.147 0.058-0.23 0.077l-0.009 0.002z"></path>
<path d="M19.914 11.026c-0.107-0.242-0.202-0.464-0.292-0.679-0.444-1.048-0.764-1.805-1.785-2.656-1.166-0.97-2.793-1.131-2.934-1.145-0.339-0.134-0.748-0.257-1.17-0.348l-0.054-0.010c-0.644-0.135-1.563-0.239-2.287 0.038-1.364 0.522-2.707 1.091-3.036 1.255-0.208 0.104-0.563 0.673-0.975 1.333-0.266 0.426-0.541 0.867-0.784 1.191-0.602 0.802-1.050 2.008 0.195 4.869 1.091 2.511 2 2.665 2.205 2.665h0.002c0.189 0.265 0.396 0.414 0.613 0.442 0.021 0.003 0.046 0.005 0.071 0.005 0.070 0 0.137-0.014 0.198-0.039l-0.003 0.001 0.97 0.471c0.512 0.774 1.291 1.269 2.162 1.269 0.851 0 1.614-0.473 2.126-1.217 0.053 0.016 0.113 0.026 0.176 0.026 0.002 0 0.004 0 0.006-0h-0c1.035 0 3.45-1.962 3.782-2.441 0.385-0.556 1.465-3.564 0.814-5.030zM13.010 19.565c-0.939 0-1.765-0.606-2.241-1.521-0.173-0.485-0.49-1.564-0.354-2.63 0.106-0.581 0.323-1.111 0.64-1.539 0.037-0.044 0.076-0.088 0.117-0.131 0.005-0.006 0.511-0.552 0.988-0.706 0.051 0.094 0.128 0.168 0.221 0.214l0.003 0.001c0.199 0.099 0.467 0.087 0.798-0.034 0.099 0.069 0.444 0.278 0.859 0.168 0.073 0.194 0.283 0.463 0.691 0.406 0.030 0.027 0.089 0.085 0.166 0.171 0.487 0.615 0.782 1.402 0.782 2.258 0 0.007-0 0.014-0 0.022v-0.001c0 1.832-1.198 3.323-2.669 3.323z"></path>
</symbol>
</defs>
</svg>
